<svg width="32" height="32" viewBox="0 0 32 32" fill="none" xmlns="http://www.w3.org/2000/svg">
<g id="Frame">
<g id="Group">
<g id="Group_2">
<g id="Group_3">
<path id="Vector" fill-rule="evenodd" clip-rule="evenodd" d="M8 8H13.7574C14.553 8 15.3161 8.31607 15.8787 8.87868L16.1213 9.12132C16.6839 9.68393 17.447 10 18.2426 10H22C22.5523 10 23.0237 10.1953 23.4142 10.5858C23.8047 10.9763 24 11.4477 24 12V23C24 23.5523 23.8047 24.0237 23.4142 24.4142C23.0237 24.8047 22.5523 25 22 25H8C7.44771 25 6.97631 24.8047 6.58579 24.4142C6.19526 24.0237 6 23.5523 6 23V10C6 9.44771 6.19526 8.97631 6.58579 8.58579C6.97631 8.19526 7.44771 8 8 8Z" fill="url(#paint0_linear_2398_20912)"/>
</g>
<g id="Group_4">
<path id="Vector_2" fill-rule="evenodd" clip-rule="evenodd" d="M10 23V14C10 13.4477 10.1953 12.9763 10.5858 12.5858C10.9763 12.1953 11.4477 12 12 12H26C26.5523 12 27.0237 12.1953 27.4142 12.5858C27.8047 12.9763 28 13.4477 28 14V23C28 23.5523 27.8047 24.0237 27.4142 24.4142C27.0237 24.8047 26.5523 25 26 25H8C8.55229 25 9.02369 24.8047 9.41421 24.4142C9.80474 24.0237 10 23.5523 10 23Z" fill="url(#paint1_linear_2398_20912)"/>
</g>
</g>
</g>
</g>
<defs>
<linearGradient id="paint0_linear_2398_20912" x1="15" y1="8" x2="15" y2="19.2436" gradientUnits="userSpaceOnUse">
<stop stop-color="#FBA200"/>
<stop offset="1" stop-color="#FF7300"/>
</linearGradient>
<linearGradient id="paint1_linear_2398_20912" x1="18" y1="12" x2="18" y2="25" gradientUnits="userSpaceOnUse">
<stop stop-color="#FAC227"/>
<stop offset="1" stop-color="#FAA627"/>
</linearGradient>
</defs>
</svg>
