<svg width="22" height="24" viewBox="0 0 22 24" fill="none" xmlns="http://www.w3.org/2000/svg">
<path d="M16.9242 7.85374C16.8005 7.71435 16.6537 7.60378 16.492 7.52834C16.3304 7.45289 16.1572 7.41406 15.9822 7.41406C15.8072 7.41406 15.634 7.45289 15.4723 7.52834C15.3107 7.60378 15.1639 7.71435 15.0402 7.85374L10.9685 12.4387C10.8852 12.5325 10.7724 12.5851 10.6546 12.5851C10.5369 12.5851 10.424 12.5325 10.3408 12.4387L6.26999 7.85374C6.02027 7.57235 5.68153 7.41421 5.3283 7.41411C4.97506 7.41402 4.63625 7.57198 4.38642 7.85324C4.13658 8.1345 3.99618 8.51603 3.99609 8.91389C3.99601 9.31175 4.13625 9.69335 4.38597 9.97474L8.45765 14.5607C8.74621 14.8858 9.08879 15.1436 9.46583 15.3195C9.84287 15.4955 10.247 15.586 10.6551 15.586C11.0632 15.586 11.4673 15.4955 11.8443 15.3195C12.2214 15.1436 12.564 14.8858 12.8525 14.5607L16.9242 9.97474C17.1739 9.69345 17.3141 9.31199 17.3141 8.91424C17.3141 8.5165 17.1739 8.13503 16.9242 7.85374Z" fill="#8C8C8C"/>
</svg>