<svg width="22" height="24" viewBox="0 0 22 24" fill="none" xmlns="http://www.w3.org/2000/svg">
<path d="M4.3844 16.1463C4.50807 16.2856 4.65493 16.3962 4.81656 16.4717C4.9782 16.5471 5.15144 16.5859 5.32641 16.5859C5.50137 16.5859 5.67462 16.5471 5.83625 16.4717C5.99789 16.3962 6.14474 16.2856 6.26842 16.1463L10.3401 11.5613C10.4233 11.4675 10.5362 11.4149 10.654 11.4149C10.7717 11.4149 10.8846 11.4675 10.9678 11.5613L15.0386 16.1463C15.2883 16.4277 15.6271 16.5858 15.9803 16.5859C16.3335 16.586 16.6723 16.428 16.9222 16.1468C17.172 15.8655 17.3124 15.484 17.3125 15.0861C17.3126 14.6883 17.1723 14.3067 16.9226 14.0253L12.8509 9.43926C12.5624 9.11421 12.2198 8.85637 11.8428 8.68046C11.4657 8.50455 11.0616 8.414 10.6535 8.414C10.2454 8.414 9.84129 8.50455 9.46426 8.68046C9.08722 8.85637 8.74464 9.11421 8.45608 9.43926L4.3844 14.0253C4.13473 14.3065 3.99447 14.688 3.99447 15.0858C3.99447 15.4835 4.13473 15.865 4.3844 16.1463Z" fill="#8C8C8C"/>
</svg>