<svg width="current" height="current" viewBox="0 0 24 25" fill="current" xmlns="http://www.w3.org/2000/svg">
<path d="M19.0611 8.35374C18.9218 8.21435 18.7564 8.10378 18.5744 8.02834C18.3923 7.95289 18.1972 7.91406 18.0001 7.91406C17.8031 7.91406 17.6079 7.95289 17.4259 8.02834C17.2438 8.10378 17.0784 8.21435 16.9391 8.35374L12.3531 12.9387C12.2594 13.0325 12.1322 13.0851 11.9996 13.0851C11.867 13.0851 11.7399 13.0325 11.6461 12.9387L7.06113 8.35374C6.77986 8.07235 6.39834 7.91421 6.00048 7.91411C5.60262 7.91402 5.22102 8.07198 4.93963 8.35324C4.65823 8.6345 4.50009 9.01603 4.5 9.41389C4.49991 9.81175 4.65786 10.1933 4.93913 10.4747L9.52513 15.0607C9.85014 15.3858 10.236 15.6436 10.6607 15.8195C11.0853 15.9955 11.5405 16.086 12.0001 16.086C12.4598 16.086 12.9149 15.9955 13.3396 15.8195C13.7643 15.6436 14.1501 15.3858 14.4751 15.0607L19.0611 10.4747C19.3423 10.1935 19.5003 9.81199 19.5003 9.41424C19.5003 9.0165 19.3423 8.63503 19.0611 8.35374Z" fill="#181818"/>
</svg>
