<svg width="25" height="25" viewBox="0 0 25 25" fill="none" xmlns="http://www.w3.org/2000/svg">
<path d="M5.43887 16.6463C5.57817 16.7856 5.74358 16.8962 5.92563 16.9717C6.10768 17.0471 6.30281 17.0859 6.49987 17.0859C6.69694 17.0859 6.89207 17.0471 7.07412 16.9717C7.25617 16.8962 7.42157 16.7856 7.56087 16.6463L12.1469 12.0613C12.2406 11.9675 12.3678 11.9149 12.5004 11.9149C12.633 11.9149 12.7601 11.9675 12.8539 12.0613L17.4389 16.6463C17.7201 16.9277 18.1017 17.0858 18.4995 17.0859C18.8974 17.086 19.279 16.928 19.5604 16.6468C19.8418 16.3655 19.9999 15.984 20 15.5861C20.0001 15.1883 19.8421 14.8067 19.5609 14.5253L14.9749 9.93926C14.6499 9.61421 14.264 9.35637 13.8393 9.18046C13.4147 9.00455 12.9595 8.914 12.4999 8.914C12.0402 8.914 11.5851 9.00455 11.1604 9.18046C10.7357 9.35637 10.3499 9.61421 10.0249 9.93926L5.43887 14.5253C5.15767 14.8065 4.99969 15.188 4.99969 15.5858C4.99969 15.9835 5.15767 16.365 5.43887 16.6463Z" fill="#181818"/>
</svg>
