<svg width="22" height="25" viewBox="0 0 22 25" fill="none" xmlns="http://www.w3.org/2000/svg">
<path d="M4.38537 16.6463C4.50905 16.7856 4.6559 16.8962 4.81754 16.9717C4.97917 17.0471 5.15242 17.0859 5.32738 17.0859C5.50235 17.0859 5.6756 17.0471 5.83723 16.9717C5.99886 16.8962 6.14572 16.7856 6.26939 16.6463L10.3411 12.0613C10.4243 11.9675 10.5372 11.9149 10.6549 11.9149C10.7726 11.9149 10.8855 11.9675 10.9688 12.0613L15.0396 16.6463C15.2893 16.9277 15.628 17.0858 15.9813 17.0859C16.3345 17.086 16.6733 16.928 16.9232 16.6468C17.173 16.3655 17.3134 15.984 17.3135 15.5861C17.3136 15.1883 17.1733 14.8067 16.9236 14.5253L12.8519 9.93926C12.5634 9.61421 12.2208 9.35637 11.8437 9.18046C11.4667 9.00455 11.0626 8.914 10.6545 8.914C10.2464 8.914 9.84227 9.00455 9.46523 9.18046C9.0882 9.35637 8.74562 9.61421 8.45706 9.93926L4.38537 14.5253C4.1357 14.8065 3.99545 15.188 3.99545 15.5858C3.99545 15.9835 4.1357 16.365 4.38537 16.6463Z" fill="#8C8C8C"/>
</svg>
