<svg width="22" height="25" viewBox="0 0 22 25" fill="none" xmlns="http://www.w3.org/2000/svg">
<path d="M16.9232 8.35374C16.7995 8.21435 16.6527 8.10378 16.4911 8.02834C16.3294 7.95289 16.1562 7.91406 15.9812 7.91406C15.8062 7.91406 15.633 7.95289 15.4714 8.02834C15.3097 8.10378 15.1629 8.21435 15.0392 8.35374L10.9675 12.9387C10.8843 13.0325 10.7714 13.0851 10.6537 13.0851C10.536 13.0851 10.4231 13.0325 10.3398 12.9387L6.26901 8.35374C6.0193 8.07235 5.68056 7.91421 5.32732 7.91411C4.97408 7.91402 4.63528 8.07198 4.38544 8.35324C4.1356 8.6345 3.9952 9.01603 3.99512 9.41389C3.99503 9.81175 4.13528 10.1933 4.385 10.4747L8.45668 15.0607C8.74524 15.3858 9.08782 15.6436 9.46485 15.8195C9.84189 15.9955 10.246 16.086 10.6541 16.086C11.0622 16.086 11.4663 15.9955 11.8434 15.8195C12.2204 15.6436 12.563 15.3858 12.8515 15.0607L16.9232 10.4747C17.1729 10.1935 17.3131 9.81199 17.3131 9.41424C17.3131 9.0165 17.1729 8.63503 16.9232 8.35374Z" fill="#8C8C8C"/>
</svg>
