<svg width="25" height="25" viewBox="0 0 25 25" fill="none" xmlns="http://www.w3.org/2000/svg">
<path d="M19.5611 8.35374C19.4218 8.21435 19.2564 8.10378 19.0744 8.02834C18.8923 7.95289 18.6972 7.91406 18.5001 7.91406C18.3031 7.91406 18.1079 7.95289 17.9259 8.02834C17.7438 8.10378 17.5784 8.21435 17.4391 8.35374L12.8531 12.9387C12.7594 13.0325 12.6322 13.0851 12.4996 13.0851C12.367 13.0851 12.2399 13.0325 12.1461 12.9387L7.56113 8.35374C7.27986 8.07235 6.89834 7.91421 6.50048 7.91411C6.10262 7.91402 5.72102 8.07198 5.43963 8.35324C5.15823 8.6345 5.00009 9.01603 5 9.41389C4.99991 9.81175 5.15786 10.1933 5.43913 10.4747L10.0251 15.0607C10.3501 15.3858 10.736 15.6436 11.1607 15.8195C11.5853 15.9955 12.0405 16.086 12.5001 16.086C12.9598 16.086 13.4149 15.9955 13.8396 15.8195C14.2643 15.6436 14.6501 15.3858 14.9751 15.0607L19.5611 10.4747C19.8423 10.1935 20.0003 9.81199 20.0003 9.41424C20.0003 9.0165 19.8423 8.63503 19.5611 8.35374Z" fill="#181818"/>
</svg>
