<svg width="24" height="25" viewBox="0 0 24 25" fill="none" xmlns="http://www.w3.org/2000/svg">
<g id="fi-sr-bookmark" clip-path="url(#clip0_5039_25214)">
<path id="Vector" d="M5.41 22.697L5.40996 22.6969L5.40254 22.7045C5.12698 22.9844 4.77345 23.1748 4.38807 23.2508C4.00269 23.3267 3.60336 23.2848 3.24216 23.1305L2.84917 24.05L3.22297 23.1225C2.85839 22.9756 2.54663 22.722 2.32846 22.3951C2.11028 22.0681 1.99585 21.6829 2.00012 21.2899H2.00017V21.279V5.50063C2.00159 4.44004 2.42354 3.42329 3.1735 2.67333C3.92346 1.92336 4.94022 1.50142 6.00081 1.5H17.9995C19.0601 1.50142 20.0769 1.92336 20.8268 2.67333C21.5769 3.42342 21.9989 4.4404 22.0002 5.5012V21.279H22.0001L22.0002 21.2904C22.0047 21.6831 21.8907 22.0681 21.673 22.3951C21.4553 22.722 21.1441 22.9757 20.78 23.123L20.78 23.123L20.7687 23.1277C20.5203 23.2318 20.2538 23.2859 19.9845 23.287C19.7267 23.2862 19.4716 23.2345 19.2338 23.1347C18.9953 23.0346 18.779 22.8883 18.5974 22.704L18.5974 22.704L18.5904 22.697L12.7054 16.844L12.0002 16.1426L11.295 16.844L5.41 22.697Z" stroke="currentColor" stroke-width="2"/>
</g>
<defs>
<clipPath id="clip0_5039_25214">
<rect width="24" height="24" fill="white" transform="translate(0 0.5)"/>
</clipPath>
</defs>
</svg>
