<svg width="current" height="current" viewBox="0 0 24 25" fill="current" xmlns="http://www.w3.org/2000/svg">
<g clip-path="url(#clip0_1661_19965)">
<path d="M20.1371 24.5C19.7672 24.499 19.4011 24.4247 19.0601 24.2813C18.719 24.138 18.4097 23.9285 18.1501 23.665L12.0001 17.551L5.85012 23.669C5.45515 24.0697 4.94861 24.3422 4.39654 24.4508C3.84447 24.5594 3.27247 24.4992 2.75512 24.278C2.23264 24.0678 1.78567 23.705 1.47258 23.2369C1.15949 22.7688 0.994841 22.2171 1.00012 21.654V5.5C1.00012 4.17392 1.52691 2.90215 2.46459 1.96447C3.40227 1.02678 4.67404 0.5 6.00012 0.5L18.0001 0.5C18.6567 0.5 19.3069 0.629329 19.9135 0.880602C20.5202 1.13188 21.0714 1.50017 21.5357 1.96447C22 2.42876 22.3683 2.97996 22.6195 3.58658C22.8708 4.19321 23.0001 4.84339 23.0001 5.5V21.654C23.0057 22.2167 22.8417 22.768 22.5293 23.2361C22.217 23.7041 21.7709 24.0672 21.2491 24.278C20.8969 24.4253 20.5189 24.5008 20.1371 24.5ZM6.00012 2.5C5.20447 2.5 4.44141 2.81607 3.8788 3.37868C3.31619 3.94129 3.00012 4.70435 3.00012 5.5V21.654C2.99976 21.8206 3.04879 21.9836 3.14102 22.1224C3.23325 22.2612 3.36455 22.3695 3.51831 22.4337C3.67208 22.4979 3.84143 22.5151 4.00496 22.4831C4.1685 22.4512 4.31888 22.3714 4.43712 22.254L11.3001 15.433C11.4875 15.2468 11.7409 15.1422 12.0051 15.1422C12.2693 15.1422 12.5228 15.2468 12.7101 15.433L19.5651 22.252C19.6834 22.3694 19.8338 22.4492 19.9973 22.4811C20.1608 22.5131 20.3302 22.4959 20.4839 22.4317C20.6377 22.3675 20.769 22.2592 20.8612 22.1204C20.9535 21.9816 21.0025 21.8186 21.0021 21.652V5.5C21.0021 4.70435 20.6861 3.94129 20.1234 3.37868C19.5608 2.81607 18.7978 2.5 18.0021 2.5H6.00012Z" fill="#7782FF"/>
</g>
<defs>
<clipPath id="clip0_1661_19965">
<rect width="24" height="24" fill="white" transform="translate(0 0.5)"/>
</clipPath>
</defs>
</svg>