<svg width="current" height="current" viewBox="0 0 24 25" fill="current" xmlns="http://www.w3.org/2000/svg">
<g clip-path="url(#clip0_1661_19969)">
<path d="M2.84917 24.05C3.39522 24.2834 3.99892 24.3467 4.58153 24.2319C5.16413 24.117 5.69859 23.8292 6.11517 23.406L12.0002 17.553L17.8852 23.406C18.1596 23.6844 18.4865 23.9056 18.8469 24.0568C19.2074 24.2081 19.5943 24.2863 19.9852 24.287C20.387 24.2858 20.7846 24.2053 21.1552 24.05C21.7057 23.8272 22.1762 23.4436 22.5054 22.9493C22.8345 22.4549 23.0069 21.8728 23.0002 21.279V5.5C22.9986 4.17441 22.4713 2.90356 21.534 1.96622C20.5966 1.02888 19.3258 0.501588 18.0002 0.5L6.00017 0.5C4.67458 0.501588 3.40373 1.02888 2.46639 1.96622C1.52906 2.90356 1.00176 4.17441 1.00017 5.5V21.279C0.993721 21.8733 1.16675 22.4557 1.49664 22.9501C1.82652 23.4445 2.29792 23.8278 2.84917 24.05Z" fill="#7782FF"/>
</g>
<defs>
<clipPath id="clip0_1661_19969">
<rect width="24" height="24" fill="white" transform="translate(0 0.5)"/>
</clipPath>
</defs>
</svg>
