<svg width="40" height="36" viewBox="0 0 40 36" fill="none" xmlns="http://www.w3.org/2000/svg">
<path d="M2 10.8001C2 8.8201 3.62 7.2001 5.6 7.2001H11L14.6 3.6001H25.4L29 7.2001H34.4C35.3548 7.2001 36.2705 7.57938 36.9456 8.25451C37.6207 8.92964 38 9.84532 38 10.8001V28.8001C38 29.7549 37.6207 30.6705 36.9456 31.3457C36.2705 32.0208 35.3548 32.4001 34.4 32.4001H5.6C4.64522 32.4001 3.72955 32.0208 3.05442 31.3457C2.37928 30.6705 2 29.7549 2 28.8001V10.8001ZM20 28.8001C22.3869 28.8001 24.6761 27.8519 26.364 26.1641C28.0518 24.4762 29 22.187 29 19.8001C29 17.4131 28.0518 15.124 26.364 13.4361C24.6761 11.7483 22.3869 10.8001 20 10.8001C17.6131 10.8001 15.3239 11.7483 13.636 13.4361C11.9482 15.124 11 17.4131 11 19.8001C11 22.187 11.9482 24.4762 13.636 26.1641C15.3239 27.8519 17.6131 28.8001 20 28.8001ZM20 25.2001C19.2909 25.2001 18.5887 25.0604 17.9335 24.789C17.2784 24.5177 16.6831 24.1199 16.1816 23.6185C15.6802 23.117 15.2824 22.5217 15.011 21.8666C14.7397 21.2114 14.6 20.5092 14.6 19.8001C14.6 19.091 14.7397 18.3888 15.011 17.7336C15.2824 17.0784 15.6802 16.4832 16.1816 15.9817C16.6831 15.4803 17.2784 15.0825 17.9335 14.8111C18.5887 14.5398 19.2909 14.4001 20 14.4001C21.4322 14.4001 22.8057 14.969 23.8184 15.9817C24.8311 16.9944 25.4 18.3679 25.4 19.8001C25.4 21.2323 24.8311 22.6058 23.8184 23.6185C22.8057 24.6312 21.4322 25.2001 20 25.2001Z" fill="#8C8C8C"/>
</svg>
