<svg width="100" height="100" viewBox="0 0 100 100" fill="none" xmlns="http://www.w3.org/2000/svg">
<path d="M42.6792 67.975L25 50.2917L30.8917 44.4L42.6792 56.1834L66.2458 32.6125L72.1417 38.5084L42.6792 67.975Z" fill="black"/>
<path fill-rule="evenodd" clip-rule="evenodd" d="M4.1665 50.0001C4.1665 24.6876 24.6873 4.16675 49.9998 4.16675C75.3123 4.16675 95.8332 24.6876 95.8332 50.0001C95.8332 75.3126 75.3123 95.8334 49.9998 95.8334C24.6873 95.8334 4.1665 75.3126 4.1665 50.0001ZM49.9998 87.5001C45.0753 87.5001 40.1989 86.5301 35.6492 84.6456C31.0995 82.761 26.9655 79.9988 23.4833 76.5166C20.0011 73.0344 17.2389 68.9004 15.3544 64.3507C13.4698 59.801 12.4998 54.9247 12.4998 50.0001C12.4998 45.0755 13.4698 40.1992 15.3544 35.6495C17.2389 31.0997 20.0011 26.9658 23.4833 23.4836C26.9655 20.0014 31.0995 17.2392 35.6492 15.3546C40.1989 13.47 45.0753 12.5001 49.9998 12.5001C59.9455 12.5001 69.4837 16.451 76.5163 23.4836C83.549 30.5162 87.4998 40.0545 87.4998 50.0001C87.4998 59.9457 83.549 69.484 76.5163 76.5166C69.4837 83.5492 59.9455 87.5001 49.9998 87.5001Z" fill="black"/>
</svg>
