<svg width="142" height="155" viewBox="0 0 142 155" fill="none" xmlns="http://www.w3.org/2000/svg">
<path fill-rule="evenodd" clip-rule="evenodd" d="M5.44921 102.108L18.0059 91.453L22.7378 27.695C20.3392 26.9128 18.1275 25.4657 16.3735 23.4119C13.8485 20.4329 12.7694 16.7126 13.0616 13.0911C13.3645 9.46356 15.0232 5.95733 18.0023 3.43227C20.9814 0.907209 24.7016 -0.171821 28.3232 0.120377C31.9507 0.423224 35.4629 2.09262 37.982 5.06104C40.513 8.05076 41.5921 11.771 41.2999 15.3926L41.2609 15.7224C41.2334 15.9478 41.2058 16.1732 41.1723 16.388L85.4855 34.1695L94.4427 26.5551C100.405 21.4883 109.443 22.2278 114.499 28.1966L138.063 55.9522C143.129 61.915 142.39 70.9529 136.421 76.009L47.4442 151.567C41.4814 156.634 32.4435 155.894 27.3874 149.926L3.82433 122.17C-1.24241 116.207 -0.513603 107.175 5.44921 102.108ZM40.7255 111.941L34.3893 117.315L30.6774 112.944C29.6002 111.672 28.8548 110.942 28.4567 110.732C28.0645 110.532 27.6262 110.624 27.1688 111.006C26.6595 111.446 26.4848 111.908 26.6837 112.412C26.872 112.923 27.51 113.811 28.5873 115.082L38.5182 126.771C39.5549 127.996 40.3062 128.736 40.7721 128.993C41.2214 129.245 41.693 129.162 42.1823 128.762C42.6443 128.362 42.8038 127.923 42.6215 127.423C42.4452 126.934 41.7712 125.982 40.5904 124.601L37.9033 121.433L44.2395 116.059L45.0737 117.047C47.2913 119.652 48.6822 121.658 49.2512 123.046C49.8262 124.446 49.8542 126.068 49.3353 127.913C48.8117 129.774 47.6672 131.452 45.8804 132.958C44.0311 134.528 42.2124 135.478 40.4243 135.809C38.6303 136.13 37.0152 135.846 35.5897 134.951C34.1582 134.047 32.3892 132.365 30.2931 129.902L24.0502 122.541C22.5154 120.728 21.415 119.315 20.7658 118.308C20.1165 117.3 19.7322 116.116 19.6187 114.766C19.4946 113.421 19.7629 112.053 20.4083 110.683C21.0477 109.303 22.0587 108.036 23.4354 106.871C25.2954 105.296 27.1473 104.355 28.9925 104.076C30.8317 103.786 32.4183 104.044 33.7461 104.839C35.074 105.634 36.7228 107.201 38.7259 109.549L40.7255 111.941ZM39.9861 93.6534L57.1037 113.812L60.9182 110.58L65.1973 115.613L55.0524 124.23L33.6558 99.0382L39.9861 93.6534ZM71.8308 92.0279C73.9793 94.5603 75.4443 96.3982 76.2151 97.5477C77.0025 98.7018 77.4559 99.9593 77.5933 101.352C77.7247 102.734 77.473 104.107 76.8476 105.438C76.2116 106.775 75.2112 108.036 73.8452 109.194C72.5477 110.3 71.1954 111.058 69.779 111.503C68.3732 111.942 66.9765 111.997 65.6043 111.647C64.2213 111.303 63.0317 110.654 62.0365 109.729C61.0353 108.793 59.432 107.032 57.231 104.431L53.5656 100.118C51.4171 97.5859 49.9521 95.748 49.1814 94.5985C48.3939 93.4444 47.9405 92.1869 47.8031 90.7941C47.6718 89.412 47.9128 88.0449 48.5488 86.7082C49.1848 85.3715 50.1852 84.1104 51.5512 82.9522C52.8487 81.8464 54.201 81.0878 55.6174 80.6432C57.0232 80.2046 58.4199 80.149 59.7921 80.4991C61.1751 80.8432 62.3648 81.4917 63.3599 82.4173C64.3611 83.3535 65.9645 85.1138 68.1654 87.7147L71.8308 92.0279ZM58.4759 89.1326C57.4857 87.9663 56.7855 87.2672 56.3814 87.0459C55.9773 86.8246 55.5969 86.8701 55.2187 87.1942C54.8985 87.4718 54.7671 87.8115 54.8138 88.2192C54.8606 88.627 55.4369 89.4796 56.5427 90.7771L66.526 102.535C67.7653 103.995 68.593 104.847 68.9818 105.091C69.3871 105.339 69.7949 105.293 70.199 104.94C70.6137 104.581 70.7246 104.155 70.5044 103.663C70.2842 103.17 69.5485 102.183 68.2866 100.707L58.4759 89.1326ZM81.5306 71.5383L75.6623 76.524L74.087 74.664C73.3458 73.7919 72.8031 73.2984 72.448 73.1896C72.093 73.0808 71.7531 73.1735 71.4009 73.4691C71.0228 73.7932 70.8727 74.1993 70.9506 74.6876C71.0285 75.1758 71.3451 75.7402 71.8897 76.3866C72.5963 77.222 73.2507 77.7648 73.8304 77.9996C74.3994 78.2403 75.4382 78.2455 76.9255 78.0271C81.1966 77.381 84.1834 77.3154 85.8575 77.8041C87.5315 78.2929 89.4112 79.7722 91.5073 82.236C93.0301 84.0275 93.9541 85.5249 94.2627 86.7237C94.5818 87.9165 94.4013 89.2916 93.7211 90.8491C93.0576 92.4112 91.9559 93.8411 90.4115 95.1554C88.7252 96.5913 86.9963 97.4771 85.2369 97.8342C83.4774 98.1913 81.9872 98.0053 80.7344 97.2943C79.4923 96.5772 78.0639 95.2787 76.4706 93.3867L75.0693 91.7371L80.9376 86.7514L83.5377 89.8143C84.3373 90.7656 84.9419 91.2944 85.3255 91.4292C85.7197 91.558 86.1189 91.4461 86.5443 91.0814C86.959 90.7228 87.1351 90.288 87.0393 89.7679C86.9601 89.2524 86.6256 88.6561 86.0584 87.9943C84.8072 86.5125 83.7793 85.7032 83.0139 85.5866C82.2213 85.4713 80.5852 85.5492 78.1102 85.8037C75.6353 86.0582 73.9233 86.1506 72.9969 86.0963C72.0706 86.042 71.0827 85.7283 70.0166 85.1505C68.9505 84.5726 67.8556 83.619 66.7153 82.2849C65.0768 80.3623 64.1144 78.7464 63.8339 77.4479C63.5535 76.1494 63.7246 74.8075 64.3627 73.3997C64.9902 71.9978 66.0578 70.6569 67.561 69.3938C69.2 67.9984 70.8351 67.0952 72.4543 66.6628C74.0736 66.2304 75.4316 66.2805 76.5057 66.7979C77.5905 67.3092 78.9843 68.5711 80.6812 70.5729L81.5306 71.5383ZM77.5664 61.7513L88.1106 52.7987L92.3897 57.8315L88.1817 61.4099L92.2642 66.2171L96.1992 62.8758L100.253 67.6569L96.3181 70.9982L101.02 76.5356L105.654 72.5926L109.933 77.6254L98.957 86.932L77.5664 61.7513ZM90.3381 50.9052L95.072 46.8918C98.1137 44.3037 100.306 42.6961 101.637 42.0752C102.958 41.4602 104.188 41.2322 105.307 41.4304C106.431 41.6119 107.408 42.0573 108.234 42.7559C109.06 43.4546 110.494 44.9878 112.521 47.3784L120.014 56.1938C121.936 58.4473 123.117 60.0528 123.554 60.983C123.998 61.9239 124.15 62.8186 124.006 63.6837C123.861 64.5488 123.474 65.3816 122.879 66.1916C122.277 66.991 121.218 68.0472 119.71 69.327L111.745 76.0906L90.3381 50.9052ZM100.317 49.8289L114.401 66.4258C115.305 65.6667 115.689 65.0034 115.575 64.4513C115.455 63.8885 114.692 62.777 113.256 61.0907L104.935 51.298C103.963 50.1637 103.311 49.4513 102.965 49.1835C102.619 48.9158 102.27 48.8176 101.884 48.8797C101.521 48.9298 101 49.2497 100.317 49.8289ZM26.9478 83.8612L78.2878 40.2789L37.5297 23.9188C37.1601 24.3081 36.768 24.6821 36.3532 25.0407C34.7721 26.3896 32.9794 27.3113 31.1033 27.8597L26.9478 83.8612ZM27.0416 20.0453C27.1234 20.0414 27.2219 20.0421 27.3096 20.0489C28.5926 20.0151 29.8773 19.5604 30.9385 18.6572C32.1155 17.661 32.7894 16.317 32.952 14.91L32.9689 14.6905C33.0896 13.2089 32.6399 11.6834 31.6031 10.4592C30.5604 9.22426 29.1287 8.54357 27.6578 8.41683C26.1761 8.29605 24.634 8.74117 23.4158 9.78854C22.1809 10.8312 21.5002 12.263 21.3734 13.7339C21.2526 15.2155 21.6978 16.7576 22.7451 17.9759C23.7819 19.2002 25.2196 19.8915 26.7118 20.0063L26.7178 20.0169C26.8175 20.045 26.9326 20.0505 27.0416 20.0453Z" fill="#960000" fill-opacity="0.60"/>
</svg>
