<svg width="24" height="25" viewBox="0 0 24 25" fill="none" xmlns="http://www.w3.org/2000/svg">
<g clip-path="url(#clip0_1650_17578)">
<path d="M13 20.5C14.3256 20.4984 15.5964 19.9711 16.5338 19.0338C17.4711 18.0965 17.9984 16.8256 18 15.5V6.74302C18.0016 6.21738 17.8988 5.69665 17.6976 5.21104C17.4964 4.72542 17.2008 4.28456 16.828 3.91402L14.586 1.67202C14.2155 1.29919 13.7746 1.00362 13.289 0.802438C12.8034 0.601255 12.2826 0.498462 11.757 0.500017H7C5.67441 0.501605 4.40356 1.0289 3.46622 1.96624C2.52888 2.90358 2.00159 4.17442 2 5.50002V15.5C2.00159 16.8256 2.52888 18.0965 3.46622 19.0338C4.40356 19.9711 5.67441 20.4984 7 20.5H13ZM4 15.5V5.50002C4 4.70437 4.31607 3.94131 4.87868 3.3787C5.44129 2.81609 6.20435 2.50002 7 2.50002C7 2.50002 11.919 2.51402 12 2.52402V4.50002C12 5.03045 12.2107 5.53916 12.5858 5.91423C12.9609 6.2893 13.4696 6.50002 14 6.50002H15.976C15.986 6.58102 16 15.5 16 15.5C16 16.2957 15.6839 17.0587 15.1213 17.6213C14.5587 18.1839 13.7956 18.5 13 18.5H7C6.20435 18.5 5.44129 18.1839 4.87868 17.6213C4.31607 17.0587 4 16.2957 4 15.5ZM22 8.50002V19.5C21.9984 20.8256 21.4711 22.0965 20.5338 23.0338C19.5964 23.9711 18.3256 24.4984 17 24.5H8C7.73478 24.5 7.48043 24.3947 7.29289 24.2071C7.10536 24.0196 7 23.7652 7 23.5C7 23.2348 7.10536 22.9804 7.29289 22.7929C7.48043 22.6054 7.73478 22.5 8 22.5H17C17.7956 22.5 18.5587 22.1839 19.1213 21.6213C19.6839 21.0587 20 20.2957 20 19.5V8.50002C20 8.2348 20.1054 7.98045 20.2929 7.79291C20.4804 7.60537 20.7348 7.50002 21 7.50002C21.2652 7.50002 21.5196 7.60537 21.7071 7.79291C21.8946 7.98045 22 8.2348 22 8.50002Z" fill="#8C8C8C"/>
</g>
<defs>
<clipPath id="clip0_1650_17578">
<rect width="24" height="24" fill="white" transform="translate(0 0.5)"/>
</clipPath>
</defs>
</svg>
