<svg width="42" height="42" viewBox="0 0 42 42" fill="none" xmlns="http://www.w3.org/2000/svg">
<path fill-rule="evenodd" clip-rule="evenodd" d="M22.8561 31.3295L31.8731 22.3125C33.3744 20.8112 34.125 18.999 34.125 16.8759C34.125 14.7528 33.3744 12.9407 31.8731 11.4394C30.3718 9.93813 28.5596 9.1875 26.4365 9.1875C24.3134 9.1875 22.5012 9.93813 21 11.4394C19.4987 9.93813 17.6865 9.1875 15.5634 9.1875C13.4403 9.1875 11.6282 9.93813 10.1269 11.4394C8.62563 12.9407 7.875 14.7528 7.875 16.8759C7.875 18.999 8.62563 20.8112 10.1269 22.3125L19.1438 31.3295C20.169 32.3546 21.8311 32.3546 22.8561 31.3295Z" fill="url(#paint0_radial_2504_9438)"/>
<defs>
<radialGradient id="paint0_radial_2504_9438" cx="0" cy="0" r="1" gradientUnits="userSpaceOnUse" gradientTransform="translate(14.5031 17.113) rotate(59.8757) scale(15.3642 16.8059)">
<stop stop-color="#FFAA00"/>
<stop offset="1" stop-color="#F05206"/>
</radialGradient>
</defs>
</svg>
