<svg width="14" height="14" viewBox="0 0 14 14" fill="none" xmlns="http://www.w3.org/2000/svg">
<rect width="14" height="14" rx="7" fill="#181818"/>
<path d="M3.69211 3.69211C3.81518 3.56921 3.98199 3.50017 4.15592 3.50017C4.32985 3.50017 4.49666 3.56921 4.61972 3.69211L7 6.07152L9.38028 3.69211C9.44119 3.63121 9.51349 3.58289 9.59307 3.54993C9.67265 3.51697 9.75795 3.5 9.84408 3.5C9.93022 3.5 10.0155 3.51697 10.0951 3.54993C10.1747 3.58289 10.247 3.63121 10.3079 3.69211C10.3688 3.75302 10.4171 3.82533 10.4501 3.90491C10.483 3.98449 10.5 4.06978 10.5 4.15592C10.5 4.24205 10.483 4.32735 10.4501 4.40693C10.4171 4.48651 10.3688 4.55881 10.3079 4.61972L7.92848 7L10.3079 9.38028C10.4309 9.50329 10.5 9.67012 10.5 9.84408C10.5 10.018 10.4309 10.1849 10.3079 10.3079C10.1849 10.4309 10.018 10.5 9.84408 10.5C9.67012 10.5 9.50329 10.4309 9.38028 10.3079L7 7.92848L4.61972 10.3079C4.49671 10.4309 4.32988 10.5 4.15592 10.5C3.98196 10.5 3.81512 10.4309 3.69211 10.3079C3.56911 10.1849 3.5 10.018 3.5 9.84408C3.5 9.67012 3.56911 9.50329 3.69211 9.38028L6.07152 7L3.69211 4.61972C3.56921 4.49666 3.50017 4.32985 3.50017 4.15592C3.50017 3.98199 3.56921 3.81518 3.69211 3.69211Z" fill="white"/>
</svg>
