<svg width="27" height="27" viewBox="0 0 27 27" fill="currentColor" xmlns="http://www.w3.org/2000/svg">
<path d="M4.83464 22.1673C4.2388 22.1673 3.72891 21.9553 3.30497 21.5314C2.88102 21.1075 2.66869 20.5972 2.66797 20.0007V7.00065C2.66797 6.40482 2.8803 5.89493 3.30497 5.47098C3.72964 5.04704 4.23952 4.83471 4.83464 4.83398H11.3346L13.5013 7.00065H22.168C22.7638 7.00065 23.2741 7.21298 23.6987 7.63765C24.1234 8.06232 24.3354 8.57221 24.3346 9.16732V20.0007C24.3346 20.5965 24.1227 21.1067 23.6987 21.5314C23.2748 21.9561 22.7645 22.168 22.168 22.1673H4.83464ZM15.668 20.0007H17.8346V17.834H20.0013V15.6673H17.8346V13.5007H20.0013V11.334H17.8346V9.16732H15.668V11.334H17.8346V13.5007H15.668V15.6673H17.8346V17.834H15.668V20.0007Z" />
</svg>
