<svg width="24" height="24" viewBox="0 0 24 24" fill="none" xmlns="http://www.w3.org/2000/svg">
<path d="M14.304 4.84399L17.156 7.69599M7 6.99999H4C3.73478 6.99999 3.48043 7.10535 3.29289 7.29289C3.10536 7.48042 3 7.73478 3 7.99999V18C3 18.2652 3.10536 18.5196 3.29289 18.7071C3.48043 18.8946 3.73478 19 4 19H15C15.2652 19 15.5196 18.8946 15.7071 18.7071C15.8946 18.5196 16 18.2652 16 18V13.5M18.409 3.58999C18.5964 3.7773 18.745 3.99969 18.8464 4.24445C18.9478 4.48921 19 4.75156 19 5.01649C19 5.28143 18.9478 5.54378 18.8464 5.78854C18.745 6.0333 18.5964 6.25569 18.409 6.44299L11.565 13.287L8 14L8.713 10.435L15.557 3.59099C15.7442 3.40353 15.9664 3.25481 16.2111 3.15334C16.4558 3.05186 16.7181 2.99963 16.983 2.99963C17.2479 2.99963 17.5102 3.05186 17.7549 3.15334C17.9996 3.25481 18.2218 3.40353 18.409 3.59099V3.58999Z" stroke="#222222" stroke-width="2" stroke-linecap="round" stroke-linejoin="round"/>
</svg>
