<svg width="80" height="42" viewBox="0 0 80 42" fill="none" xmlns="http://www.w3.org/2000/svg">
<path d="M10.0643 38.0645C10.0643 38.0645 14.774 35.6129 19.6772 36.5807C24.2579 37.4839 24.3869 34.6452 26.8385 34.6452C29.2901 34.6452 28.903 32.4516 30.774 32.5807C30.774 32.5807 31.6127 32.6452 31.6127 33.4839C31.6127 33.4839 30.0643 33.5484 29.4192 34.7742C28.774 36 25.1611 35.871 23.7417 37.2903C21.9998 39.0323 17.0966 37.871 15.0321 38.0645C13.4191 38.2581 11.4837 40 8.70947 40L10.0643 38.0645Z" fill="#3E4347"/>
<path d="M17.6128 34.5806C17.6128 34.5806 20.5805 34.4516 22.3225 35.7419C24.1289 37.0322 25.4192 38.6451 27.6773 37.8709C29.9354 37.0967 32.0644 36.5161 34.516 37.2903C34.516 37.2903 34.8386 36.8387 34.7741 36.3225C34.7741 36.3225 33.2257 35.4193 31.4192 35.8064C29.6128 36.1935 27.8063 37.2257 26.6451 36.8387C25.4838 36.4516 23.0321 33.8064 19.0967 33.8064L17.6128 34.5806Z" fill="#3E4347"/>
<path d="M35.9998 37.2259C36.0643 37.0968 36.0643 36.9678 35.9998 36.9678L33.8708 36.1936L33.6772 36.6452L35.8063 37.4194C35.8063 37.4194 35.9353 37.3549 35.9998 37.2259Z" fill="#3E4347"/>
<path d="M9.22578 24.258C9.22578 24.258 5.74191 12.4516 17.6774 8.58061C28.258 5.22578 24.7742 15.0967 9.22578 24.258Z" fill="#C94747"/>
<path d="M17.6776 6.83866C12.1292 21.1612 8.32276 20.7741 10.9034 25.8064L11.8712 38.5806C11.8712 38.5806 13.6131 37.5483 17.7421 35.1612C20.8389 33.3548 26.9679 32.9032 31.097 30.4516C38.3873 26.1935 42.5808 19.6774 38.3873 12.3225C34.1937 5.03221 22.3228 -5.22586 17.6776 6.83866Z" fill="#ED4C5C"/>
<path d="M15.7418 27.6129C13.6773 24 10.4515 22 8.51599 23.0968L2.64502 26.5161L10.0644 39.6774L15.9353 36.2581C17.8708 35.0968 17.8063 31.2258 15.7418 27.6129Z" fill="#C94747"/>
<path d="M9.93528 31.0323C11.9998 34.6452 12.0643 38.5162 10.1288 39.6775C8.19335 40.8388 4.96754 38.7743 2.90302 35.1614C0.838506 31.5485 0.77399 27.6775 2.70947 26.5162C4.64496 25.4194 7.87076 27.4194 9.93528 31.0323Z" fill="#3E4347"/>
<path d="M8.7742 31.6774C10.2581 34.3225 10.3871 37.0967 9.09678 37.8709C7.80646 38.6451 5.48388 37.1612 4 34.5161C2.51613 31.8709 2.3871 29.0967 3.67742 28.3225C5.03226 27.5483 7.29033 29.0967 8.7742 31.6774Z" fill="#ED4C5C"/>
<path d="M8.77409 31.6775C7.54828 29.4839 5.74183 28.0645 4.38699 28.1291C4.12893 29.3549 4.51602 31.2258 5.54828 33.0323C6.77409 35.2258 8.58054 36.6452 9.93538 36.5807C10.1934 35.3549 9.80634 33.4839 8.77409 31.6775Z" fill="#C94747"/>
<path d="M24.9679 3.87103C26.9033 2.70973 33.0969 7.3549 35.9356 12.3226C38.7743 17.2904 34.3227 18.2581 31.484 13.2904C28.7098 8.25812 21.8066 5.67748 24.9679 3.87103Z" fill="#FF717F"/>
<path d="M16.9031 8.90332C16.9031 8.90332 15.6127 14.9678 11.1611 19.9356C11.1611 19.9356 13.9998 15.4194 15.0321 9.67751L16.9031 8.90332Z" fill="#3E4347"/>
<path d="M19.3548 6.38708C21.5483 5.74192 19.4193 3.93547 20.6451 2.51611C19.4838 3.41934 17.9999 4.70966 17.4193 6.83869C14.4515 18.129 10.129 19.2258 10.0645 22.8387C10.8386 22.3226 12.5161 20.7097 14.4515 21.2258C17.2257 22 11.2903 18.3226 14.5806 18.7742C17.9354 19.1613 13.2257 16.3871 16.258 16.1935C19.2903 16 13.6774 12.9677 17.6128 13.0322C21.5483 13.0968 15.3548 10.3871 19.8709 10.129C24.387 9.74192 16.6451 7.16127 19.3548 6.38708Z" fill="#C94747"/>
<path d="M5.80664 25.7418C7.54858 26.516 9.35503 28.258 10.7099 30.5805C12.0647 32.9676 12.5808 35.3547 12.3873 37.2902L15.5486 35.4192C16.8389 34.6451 16.9679 31.4192 15.0324 27.9999C13.4195 25.1612 11.1615 23.6128 9.80664 23.6128C9.48406 23.6128 9.29051 23.6773 9.03245 23.8063L5.80664 25.7418Z" fill="white"/>
<path d="M32.9033 32.7097C32.9033 32.5807 32.8388 32.4517 32.7742 32.4517L30.4517 32.9033L30.5162 33.4194L32.7742 33.0323C32.8388 32.9678 32.9033 32.8388 32.9033 32.7097Z" fill="#3E4347"/>
<path d="M69.9357 38.0645C69.9357 38.0645 65.226 35.6129 60.3228 36.5807C55.7421 37.4839 55.6131 34.6452 53.1615 34.6452C50.7099 34.6452 51.097 32.4516 49.226 32.5807C49.226 32.5807 48.3873 32.6452 48.3873 33.4839C48.3873 33.4839 49.9357 33.5484 50.5808 34.7742C51.226 36 54.8389 35.871 56.2583 37.2903C58.0002 39.0323 62.9034 37.871 64.9679 38.0645C66.5809 38.2581 68.5163 40 71.2905 40L69.9357 38.0645Z" fill="#3E4347"/>
<path d="M62.3872 34.5806C62.3872 34.5806 59.4195 34.4516 57.6775 35.7419C55.8711 37.0322 54.5808 38.6451 52.3227 37.8709C50.0646 37.0967 47.9356 36.5161 45.484 37.2903C45.484 37.2903 45.1614 36.8387 45.2259 36.3225C45.2259 36.3225 46.7743 35.4193 48.5808 35.8064C50.3872 36.1935 52.1937 37.2257 53.3549 36.8387C54.5162 36.4516 56.9679 33.8064 60.9033 33.8064L62.3872 34.5806Z" fill="#3E4347"/>
<path d="M44.0002 37.2259C43.9357 37.0968 43.9357 36.9678 44.0002 36.9678L46.1292 36.1936L46.3228 36.6452L44.1937 37.4194C44.1937 37.4194 44.0647 37.3549 44.0002 37.2259Z" fill="#3E4347"/>
<path d="M70.7742 24.258C70.7742 24.258 74.2581 12.4516 62.3226 8.58061C51.742 5.22578 55.2258 15.0967 70.7742 24.258Z" fill="#244EE2"/>
<path d="M62.3224 6.83866C67.8708 21.1612 71.6772 20.7741 69.0966 25.8064L68.1288 38.5806C68.1288 38.5806 66.3869 37.5483 62.2579 35.1612C59.1611 33.3548 53.0321 32.9032 48.903 30.4516C41.6127 26.1935 37.4192 19.6774 41.6127 12.3225C45.8063 5.03221 57.6772 -5.22586 62.3224 6.83866Z" fill="#3554C1"/>
<path d="M64.2582 27.6129C66.3227 24 69.5485 22 71.484 23.0968L77.355 26.5161L69.9356 39.6774L64.0647 36.2581C62.1292 35.0968 62.1937 31.2258 64.2582 27.6129Z" fill="#244EE2"/>
<path d="M70.0647 31.0323C68.0002 34.6452 67.9357 38.5162 69.8712 39.6775C71.8067 40.8388 75.0325 38.7743 77.097 35.1614C79.1615 31.5485 79.226 27.6775 77.2905 26.5162C75.355 25.4194 72.1292 27.4194 70.0647 31.0323Z" fill="#3E4347"/>
<path d="M71.2258 31.6774C69.7419 34.3225 69.6129 37.0967 70.9032 37.8709C72.1935 38.6451 74.5161 37.1612 76 34.5161C77.4839 31.8709 77.6129 29.0967 76.3226 28.3225C74.9677 27.5483 72.7097 29.0967 71.2258 31.6774Z" fill="#3554C1"/>
<path d="M71.2259 31.6775C72.4517 29.4839 74.2582 28.0645 75.613 28.1291C75.8711 29.3549 75.484 31.2258 74.4517 33.0323C73.2259 35.2258 71.4195 36.6452 70.0646 36.5807C69.8066 35.3549 70.1937 33.4839 71.2259 31.6775Z" fill="#244EE2"/>
<path d="M55.0321 3.87103C53.0967 2.70973 46.9031 7.3549 44.0644 12.3226C41.2257 17.2904 45.6773 18.2581 48.516 13.2904C51.2902 8.25812 58.1934 5.67748 55.0321 3.87103Z" fill="#99A8DF"/>
<path d="M63.0969 8.90332C63.0969 8.90332 64.3873 14.9678 68.8389 19.9356C68.8389 19.9356 66.0002 15.4194 64.9679 9.67751L63.0969 8.90332Z" fill="#3E4347"/>
<path d="M60.6452 6.38708C58.4517 5.74192 60.5807 3.93547 59.3549 2.51611C60.5162 3.41934 62.0001 4.70966 62.5807 6.83869C65.5485 18.129 69.871 19.2258 69.9355 22.8387C69.1614 22.3226 67.4839 20.7097 65.5485 21.2258C62.7743 22 68.7097 18.3226 65.4194 18.7742C62.0646 19.1613 66.7743 16.3871 63.742 16.1935C60.7097 16 66.3226 12.9677 62.3872 13.0322C58.4517 13.0968 64.6452 10.3871 60.1291 10.129C55.613 9.74192 63.3549 7.16127 60.6452 6.38708Z" fill="#244EE2"/>
<path d="M74.1934 25.7418C72.4514 26.516 70.645 28.258 69.2901 30.5805C67.9353 32.9676 67.4192 35.3547 67.6127 37.2902L64.4514 35.4192C63.1611 34.6451 63.0321 31.4192 64.9676 27.9999C66.5805 25.1612 68.8385 23.6128 70.1934 23.6128C70.5159 23.6128 70.7095 23.6773 70.9676 23.8063L74.1934 25.7418Z" fill="white"/>
<path d="M47.0967 32.7097C47.0967 32.5807 47.1612 32.4517 47.2258 32.4517L49.5483 32.9033L49.4838 33.4194L47.2258 33.0323C47.1612 32.9678 47.0967 32.8388 47.0967 32.7097Z" fill="#3E4347"/>
</svg>
