<svg width="35" height="36" viewBox="0 0 35 36" fill="none" xmlns="http://www.w3.org/2000/svg">
<path d="M17.8555 14.6094V21.525H27.4659C27.0439 23.7491 25.7775 25.6323 23.8782 26.8985L29.6736 31.3953C33.0503 28.2785 34.9984 23.7005 34.9984 18.2622C34.9984 16.996 34.8848 15.7783 34.6737 14.6096L17.8555 14.6094Z" fill="#4285F4"/>
<path d="M7.8479 21.2559L6.5408 22.2564L1.91406 25.8603C4.85239 31.6882 10.8747 35.7143 17.8552 35.7143C22.6766 35.7143 26.7188 34.1234 29.6734 31.3961L23.8779 26.8993C22.287 27.9707 20.2578 28.6201 17.8552 28.6201C13.2124 28.6201 9.26765 25.487 7.8552 21.2662L7.8479 21.2559Z" fill="#34A853"/>
<path d="M1.91546 9.85352C0.697985 12.256 0 14.9671 0 17.8567C0 20.7463 0.697985 23.4574 1.91546 25.8599C1.91546 25.8761 7.85717 21.2495 7.85717 21.2495C7.50003 20.1781 7.28893 19.0418 7.28893 17.8565C7.28893 16.6713 7.50003 15.535 7.85717 14.4636L1.91546 9.85352Z" fill="#FBBC05"/>
<path d="M17.8556 7.11045C20.4855 7.11045 22.8232 8.01952 24.6901 9.77281L29.8037 4.65919C26.703 1.76961 22.6771 0 17.8556 0C10.8751 0 4.85239 4.00977 1.91406 9.85399L7.85559 14.4644C9.26785 10.2436 13.2127 7.11045 17.8556 7.11045Z" fill="#EA4335"/>
</svg>
