<svg width="71" height="71" viewBox="0 0 71 71" fill="none" xmlns="http://www.w3.org/2000/svg">
<circle cx="35.4984" cy="35.5003" r="34.6781" fill="#FEE500"/>
<path d="M35.5983 17.5586C24.8093 17.5586 16.1084 24.5192 16.1084 32.9695C16.1084 38.4545 19.728 43.2574 25.1573 45.9999L23.3197 52.8632C23.285 52.9661 23.2797 53.0765 23.3043 53.1822C23.3289 53.2879 23.3824 53.3847 23.4589 53.4617C23.5704 53.5601 23.7139 53.6145 23.8626 53.6149C23.9859 53.605 24.1029 53.5563 24.1967 53.4757L32.1041 48.1438C33.2713 48.305 34.4479 48.3886 35.6262 48.3943C46.4013 48.3943 55.1161 41.4337 55.1161 32.9695C55.1161 24.5053 46.3735 17.5586 35.5983 17.5586Z" fill="#392020"/>
<path d="M22.9289 30.5324H20.799C20.535 30.54 20.2742 30.4724 20.0472 30.3375C19.9464 30.2743 19.8598 30.191 19.7927 30.0928C19.7256 29.9945 19.6796 29.8835 19.6574 29.7666C19.6507 29.6925 19.6507 29.6181 19.6574 29.544C19.6508 29.4054 19.6777 29.2671 19.7359 29.1411C19.794 29.0151 19.8817 28.905 19.9915 28.8201C20.2342 28.6443 20.5272 28.5515 20.8268 28.5555H27.2446C27.5107 28.5461 27.7732 28.6191 27.9963 28.7643C28.0995 28.8247 28.188 28.9073 28.2554 29.006C28.3228 29.1047 28.3674 29.2171 28.3861 29.3352C28.3929 29.4046 28.3929 29.4746 28.3861 29.544C28.3927 29.6847 28.3658 29.8248 28.3078 29.9531C28.2497 30.0813 28.162 30.1939 28.052 30.2817C27.8152 30.4573 27.5251 30.5459 27.2306 30.5324H25.1703V37.855C25.1787 38.0111 25.1545 38.167 25.0994 38.3132C25.0443 38.4594 24.9594 38.5926 24.8501 38.7042C24.7453 38.811 24.6193 38.8946 24.4803 38.9498C24.3412 39.0049 24.1921 39.0303 24.0426 39.0244C23.7812 39.0319 23.5253 38.9483 23.3187 38.7878C23.1221 38.6311 22.9886 38.4086 22.9429 38.1613C22.9291 38.0597 22.9291 37.9567 22.9429 37.855L22.9289 30.5324Z" fill="#FEE500"/>
<path d="M29.0013 29.1002C29.0625 28.8711 29.2063 28.6728 29.405 28.5433C29.6167 28.4233 29.858 28.3654 30.1011 28.3763H30.6301C30.8881 28.367 31.1435 28.4297 31.3679 28.5573C31.6057 28.7172 31.7747 28.9607 31.8413 29.2394L34.6256 37.105C34.6977 37.3102 34.7582 37.5195 34.8065 37.7316C34.8113 37.8197 34.8113 37.9079 34.8065 37.996C34.8112 38.1317 34.7863 38.2668 34.7334 38.3918C34.6805 38.5168 34.6009 38.6289 34.5003 38.72C34.4027 38.8199 34.2856 38.8987 34.1563 38.9514C34.0269 39.0041 33.8881 39.0295 33.7485 39.0262C33.5338 39.0475 33.3181 38.996 33.1363 38.8799C32.9545 38.7637 32.817 38.5897 32.7462 38.3859L32.1615 36.6736H28.5001L27.9154 38.3859C27.8463 38.5937 27.7072 38.7711 27.5219 38.8879C27.3366 39.0046 27.1165 39.0535 26.8992 39.0262C26.6638 39.0324 26.4332 38.9587 26.2449 38.8173C26.0614 38.6714 25.9376 38.4636 25.8968 38.2327C25.8894 38.154 25.8894 38.0747 25.8968 37.996C25.8729 37.8578 25.8729 37.7167 25.8968 37.5785C25.8968 37.4253 25.9943 37.2582 26.05 37.105L29.0013 29.1002ZM30.3934 30.924L29.0709 35.1004H31.7021L30.3934 30.924Z" fill="#FEE500"/>
<path d="M35.1252 29.5457C35.1111 29.2333 35.2212 28.928 35.4315 28.6965C35.5384 28.5887 35.6668 28.5044 35.8082 28.4492C35.9497 28.3941 36.1012 28.3691 36.2529 28.3762C36.5137 28.3731 36.7681 28.4564 36.9768 28.6129C37.1701 28.7762 37.2986 29.0033 37.3387 29.2532C37.3524 29.3502 37.3524 29.4487 37.3387 29.5457V36.8683H41.1671C41.4325 36.8649 41.6933 36.9372 41.9189 37.077C42.0202 37.1395 42.1073 37.2227 42.1745 37.3211C42.2416 37.4194 42.2873 37.5307 42.3087 37.6479C42.3087 37.6479 42.3087 37.7871 42.3087 37.8567C42.3153 37.9953 42.2884 38.1334 42.2302 38.2595C42.172 38.3855 42.0844 38.4957 41.9746 38.5806C41.7319 38.7564 41.4389 38.8491 41.1393 38.8451H36.4338C36.1342 38.8644 35.8363 38.7863 35.5846 38.6225C35.3596 38.4542 35.2096 38.2042 35.167 37.9264C35.1568 37.7734 35.1568 37.6198 35.167 37.4669L35.1252 29.5457Z" fill="#FEE500"/>
<path d="M42.5597 29.5447C42.5513 29.2332 42.6607 28.93 42.8659 28.6955C43.0746 28.5059 43.3422 28.394 43.6237 28.3787C43.9052 28.3635 44.1834 28.4459 44.4112 28.6119C44.6088 28.7738 44.7421 29.0008 44.7871 29.2522C44.794 29.3496 44.794 29.4474 44.7871 29.5447V32.9554L48.3092 28.8903C48.4449 28.7516 48.589 28.6215 48.7408 28.5006C48.8837 28.4154 49.0477 28.3719 49.2141 28.3752C49.4574 28.3738 49.6954 28.4467 49.8962 28.584C49.9909 28.6478 50.0717 28.73 50.1339 28.8257C50.1961 28.9214 50.2384 29.0285 50.2582 29.1409C50.2638 29.1685 50.2638 29.197 50.2582 29.2245C50.2514 29.2567 50.2514 29.2898 50.2582 29.3219C50.2577 29.4684 50.2193 29.6123 50.1468 29.7396C50.0729 29.8744 49.9842 30.0003 49.8823 30.1153L47.5714 32.6491L50.3556 36.9647V37.1039C50.5002 37.3034 50.6129 37.5243 50.6898 37.7583V37.8279C50.7059 37.9891 50.6826 38.152 50.622 38.3023C50.5614 38.4526 50.4652 38.586 50.3417 38.691C50.1095 38.8665 49.8254 38.9597 49.5343 38.9556C49.3409 38.9635 49.1488 38.9202 48.9774 38.8301C48.792 38.7058 48.6392 38.5387 48.5319 38.3429L45.9426 34.1665L44.7036 35.4613V37.786C44.7119 38.0976 44.6025 38.4007 44.3973 38.6352C44.2873 38.7428 44.1564 38.8267 44.0128 38.8818C43.8691 38.9369 43.7157 38.962 43.562 38.9556C43.3051 38.9609 43.0543 38.8773 42.852 38.7188C42.6554 38.5621 42.5219 38.3397 42.4761 38.0924C42.4624 37.9908 42.4624 37.8877 42.4761 37.786L42.5597 29.5447Z" fill="#FEE500"/>
</svg>
