<svg width="6" height="10" viewBox="0 0 6 10" fill="none" xmlns="http://www.w3.org/2000/svg">
<path fill-rule="evenodd" clip-rule="evenodd" d="M5.51519 0.233706C5.55012 0.26854 5.57782 0.309921 5.59673 0.35548C5.61563 0.401039 5.62536 0.44988 5.62536 0.499206C5.62536 0.548531 5.61563 0.597372 5.59673 0.642931C5.57782 0.68849 5.55012 0.729871 5.51519 0.764706L1.27994 4.99921L5.51519 9.23371C5.58561 9.30412 5.62517 9.39962 5.62517 9.49921C5.62517 9.59879 5.58561 9.69429 5.51519 9.76471C5.44478 9.83512 5.34928 9.87468 5.24969 9.87468C5.15011 9.87468 5.05461 9.83512 4.98419 9.76471L0.484194 5.26471C0.449271 5.22987 0.421564 5.18849 0.402659 5.14293C0.383754 5.09737 0.374023 5.04853 0.374023 4.99921C0.374023 4.94988 0.383754 4.90104 0.402659 4.85548C0.421564 4.80992 0.449271 4.76854 0.484194 4.73371L4.98419 0.233706C5.01903 0.198783 5.06041 0.171076 5.10597 0.152171C5.15153 0.133266 5.20037 0.123535 5.24969 0.123535C5.29902 0.123535 5.34786 0.133266 5.39342 0.152171C5.43898 0.171076 5.48036 0.198783 5.51519 0.233706Z" fill="#393E46"/>
</svg>
