<svg width="22" height="23" viewBox="0 0 22 23" fill="none" xmlns="http://www.w3.org/2000/svg">
<g id="tabler:thumb-down">
<g id="Vector">
<path d="M14.9954 10.6183L14.9954 15.9103L14.9954 17.6743C14.9954 17.9082 15.0884 18.1326 15.2538 18.298C15.4192 18.4634 15.6435 18.5563 15.8774 18.5563L17.6414 18.5563C17.8754 18.5563 18.0997 18.4634 18.2651 18.298C18.4305 18.1326 18.5234 17.9082 18.5234 17.6743L18.5234 11.5003C18.5234 11.2664 18.4305 11.042 18.2651 10.8766C18.0997 10.7112 17.8754 10.6183 17.6414 10.6183L14.9954 10.6183Z" fill="#7782FF"/>
<path d="M14.9954 10.6183L14.9954 17.6743M14.9954 10.6183L17.6414 10.6183C17.8754 10.6183 18.0997 10.7112 18.2651 10.8766C18.4305 11.042 18.5234 11.2664 18.5234 11.5003L18.5234 17.6743C18.5234 17.9082 18.4305 18.1326 18.2651 18.298C18.0997 18.4634 17.8754 18.5563 17.6414 18.5563L15.8774 18.5563C15.6435 18.5563 15.4192 18.4634 15.2538 18.298C15.0884 18.1326 14.9954 17.9082 14.9954 17.6743M14.9954 10.6183C14.0598 10.6183 13.1624 10.2466 12.5008 9.58497C11.8391 8.92334 11.4674 8.02598 11.4674 7.0903L11.4674 6.2083C11.4674 5.74046 11.2816 5.29178 10.9508 4.96096C10.62 4.63015 10.1713 4.4443 9.70344 4.4443C9.2356 4.4443 8.78692 4.63015 8.4561 4.96096C8.12529 5.29178 7.93944 5.74046 7.93944 6.2083L7.93944 10.6183L5.29344 10.6183C4.8256 10.6183 4.37692 10.8041 4.0461 11.135C3.71529 11.4658 3.52944 11.9145 3.52944 12.3823L4.41144 16.7923C4.53828 17.3334 4.7789 17.798 5.09706 18.1161C5.41521 18.4343 5.79368 18.5888 6.17544 18.5563L12.3494 18.5563C13.0512 18.5563 13.7242 18.2775 14.2204 17.7813C14.7167 17.2851 14.9954 16.6121 14.9954 15.9103M14.9954 10.6183L14.9954 15.9103M14.9954 17.6743L14.9954 15.9103" stroke="#7782FF" stroke-width="1.323" stroke-linecap="round" stroke-linejoin="round"/>
</g>
</g>
</svg>
