<svg width="24" height="25" viewBox="0 0 24 25" fill="none" xmlns="http://www.w3.org/2000/svg">
<path d="M7.47998 18.6833L10.58 21.0833C10.98 21.4833 11.88 21.6833 12.48 21.6833H16.28C17.48 21.6833 18.78 20.7833 19.08 19.5833L21.48 12.2833C21.98 10.8833 21.08 9.68333 19.58 9.68333H15.58C14.98 9.68333 14.48 9.18333 14.58 8.48333L15.08 5.28333C15.28 4.38333 14.68 3.38333 13.78 3.08333C12.98 2.78333 11.98 3.18333 11.58 3.78333L7.47998 9.88333" stroke="#292D32" strokeWidth="1.5" strokeMiterlimit="10"/>
<path d="M2.37988 18.6833V8.88333C2.37988 7.48333 2.97988 6.98333 4.37988 6.98333H5.37988C6.77988 6.98333 7.37988 7.48333 7.37988 8.88333V18.6833C7.37988 20.0833 6.77988 20.5833 5.37988 20.5833H4.37988C2.97988 20.5833 2.37988 20.0833 2.37988 18.6833Z" stroke="#292D32" strokeWidth="1.5" strokeLinecap="round" strokeLinejoin="round"/>
</svg>
  
