<svg width="192" height="34" viewBox="0 0 192 34" fill="none" xmlns="http://www.w3.org/2000/svg">
<g clip-path="url(#clip0_1425_16890)">
<path d="M23.9028 3.75155C21.7316 1.70234 18.6121 0.677734 14.5446 0.677734H0V8.95918H0.0853333H13.3689C15.5307 8.95918 16.6021 9.96499 16.6021 11.986C16.6021 14.007 15.5212 15.0128 13.3689 15.0128H0V33.6155H10.4107V23.1533H14.5351C17.2279 23.1533 19.5129 22.6551 21.4092 21.6681C23.3055 20.6717 24.7277 19.3368 25.7043 17.6448C26.6714 15.9528 27.155 14.0728 27.155 11.9954C27.155 8.55498 26.0646 5.81016 23.8933 3.76095L23.9028 3.75155Z" fill="#181818"/>
<path d="M44.3736 0.685547V33.6139H33.9629V0.685547H44.3736Z" fill="#181818"/>
<path d="M51.3035 19.2975C50.7156 16.4963 50.9242 13.7702 51.9387 11.1288C52.9532 8.48741 54.7547 6.1186 57.3526 4.02238C59.5808 2.21757 61.9132 1.02377 64.3595 0.431562C66.7962 -0.160641 69.195 -0.141841 71.5369 0.478563C73.8883 1.09897 76.0691 2.27397 78.0981 3.99418L69.5932 10.875C68.5123 10.3486 67.422 10.1418 66.3221 10.2452C65.2223 10.358 64.2078 10.781 63.2881 11.5236C61.9322 12.6234 61.278 13.9958 61.3159 15.6409C61.3538 17.2859 62.0839 18.9591 63.4872 20.6699C64.8904 22.3807 66.398 23.4147 68.0193 23.7907C69.6406 24.1667 71.1198 23.8001 72.4851 22.7003C73.4048 21.9577 74.0306 21.0647 74.3624 20.0119C74.6943 18.9685 74.7038 17.8687 74.4003 16.7125L82.9052 9.83162C84.2042 12.144 84.9248 14.5034 85.067 16.9099C85.2092 19.3163 84.7446 21.6475 83.6637 23.8941C82.5923 26.1407 80.9331 28.1711 78.7049 29.9759C76.107 32.0721 73.4048 33.3506 70.5983 33.8018C67.7823 34.253 65.0516 33.9146 62.3968 32.7772C59.742 31.6397 57.3811 29.8067 55.3046 27.2875C53.2282 24.7683 51.8913 22.0987 51.3035 19.2975Z" fill="#181818"/>
<path d="M91.4297 33.6139H101.84V19.3353V14.5412V0.685547H91.4297V33.6139Z" fill="#181818"/>
<path d="M114.451 16.4494L125.895 0.685547H114.119L104.6 14.5412V19.3353L114.261 33.6139H126.644L114.451 16.4494Z" fill="#7782FF"/>
<path d="M166.362 31.7526C163.755 30.2956 161.678 28.284 160.142 25.7084C158.606 23.1328 157.848 20.2376 157.848 17.0134C157.848 13.7891 158.616 10.8939 160.142 8.31831C161.678 5.74269 163.745 3.74048 166.362 2.29287C168.969 0.854664 171.842 0.130859 174.971 0.130859C178.1 0.130859 180.964 0.854664 183.552 2.29287C186.15 3.73108 188.207 5.74269 189.724 8.31831C191.241 10.8939 192 13.7891 192 17.0134C192 20.2376 191.241 23.1328 189.724 25.7084C188.207 28.284 186.14 30.2956 183.533 31.7526C180.926 33.2097 178.072 33.9429 174.971 33.9429C171.871 33.9429 168.969 33.2191 166.362 31.7526ZM179.759 22.4842C180.888 21.2716 181.447 19.6266 181.447 17.568C181.447 15.5094 180.888 13.8267 179.759 12.6141C178.631 11.4015 177.038 10.7905 174.971 10.7905C172.904 10.7905 171.264 11.4015 170.136 12.6141C169.007 13.8267 168.448 15.4812 168.448 17.568C168.448 19.6548 169.007 21.2622 170.136 22.4842C171.264 23.7062 172.876 24.3078 174.971 24.3078C177.067 24.3078 178.631 23.6968 179.759 22.4842Z" fill="#181818"/>
<path d="M150.774 13.8359V21.2714H128.947V13.8359H150.774Z" fill="#181818"/>
</g>
<defs>
<clipPath id="clip0_1425_16890">
<rect width="192" height="34" fill="white"/>
</clipPath>
</defs>
</svg>
