<svg width="319" height="53" viewBox="0 0 319 53" fill="none" xmlns="http://www.w3.org/2000/svg">
<g clip-path="url(#clip0_2398_21206)">
<path d="M39.7135 5.84672C36.1061 2.65236 30.9233 1.05518 24.1652 1.05518H0V13.9645H0.141778H22.2119C25.8036 13.9645 27.5837 15.5324 27.5837 18.6828C27.5837 21.8332 25.7878 23.401 22.2119 23.401H0V52.3994H17.2969V36.0906H24.1495C28.6234 36.0906 32.4199 35.314 35.5705 33.7754C38.7211 32.2222 41.0841 30.1414 42.7066 27.5039C44.3134 24.8664 45.1168 21.9357 45.1168 18.6974C45.1168 13.3344 43.3052 9.05573 39.6978 5.86137L39.7135 5.84672Z" fill="#181818"/>
<path d="M73.7227 1.06982V52.3994H56.4258V1.06982H73.7227Z" fill="#181818"/>
<path d="M85.2391 30.0828C84.2624 25.7162 84.609 21.4668 86.2946 17.3493C87.9801 13.2318 90.9732 9.53928 95.2896 6.27165C98.9915 3.45827 102.867 1.59734 106.931 0.674194C110.98 -0.248947 114.965 -0.219641 118.856 0.74746C122.763 1.71456 126.386 3.54619 129.757 6.22769L115.627 16.9537C113.831 16.1331 112.019 15.8108 110.192 15.972C108.365 16.1478 106.679 16.8072 105.151 17.9648C102.898 19.6792 101.811 21.8185 101.874 24.3828C101.937 26.9471 103.15 29.5553 105.482 32.2222C107.813 34.889 110.318 36.5009 113.012 37.087C115.706 37.6731 118.163 37.1016 120.431 35.3872C121.96 34.2296 122.999 32.8376 123.551 31.1965C124.102 29.57 124.118 27.8556 123.614 26.0532L137.744 15.3272C139.902 18.9319 141.1 22.6098 141.336 26.361C141.572 30.1121 140.8 33.7461 139.004 37.2482C137.224 40.7502 134.467 43.9153 130.766 46.7287C126.449 49.9963 121.96 51.9891 117.297 52.6925C112.618 53.3958 108.081 52.8683 103.67 51.0953C99.2593 49.3223 95.3368 46.4649 91.8869 42.5379C88.437 38.6109 86.2158 34.4494 85.2391 30.0828Z" fill="#181818"/>
<path d="M151.906 52.3994H169.203V30.1414V22.6684V1.06982H151.906V52.3994Z" fill="#181818"/>
<path d="M190.153 25.643L209.167 1.06982H189.601L173.785 22.6684V30.1414L189.838 52.3994H210.411L190.153 25.643Z" fill="#7782FF"/>
<path d="M276.404 49.4979C272.072 47.2266 268.622 44.0909 266.07 40.076C263.518 36.061 262.258 31.5479 262.258 26.5219C262.258 21.4959 263.534 16.9828 266.07 12.9679C268.622 8.95294 272.056 5.83184 276.404 3.57527C280.736 1.33336 285.509 0.205078 290.708 0.205078C295.906 0.205078 300.664 1.33336 304.964 3.57527C309.281 5.81719 312.699 8.95294 315.22 12.9679C317.74 16.9828 319 21.4959 319 26.5219C319 31.5479 317.74 36.061 315.22 40.076C312.699 44.0909 309.265 47.2266 304.933 49.4979C300.601 51.7691 295.859 52.912 290.708 52.912C285.557 52.912 280.736 51.7837 276.404 49.4979ZM298.663 35.05C300.538 33.1597 301.467 30.5955 301.467 27.3864C301.467 24.1774 300.538 21.5545 298.663 19.6643C296.789 17.7741 294.142 16.8216 290.708 16.8216C287.274 16.8216 284.548 17.7741 282.674 19.6643C280.799 21.5545 279.87 24.1335 279.87 27.3864C279.87 30.6394 280.799 33.1451 282.674 35.05C284.548 36.9549 287.226 37.8927 290.708 37.8927C294.189 37.8927 296.789 36.9402 298.663 35.05Z" fill="#181818"/>
<path d="M250.506 21.5693V33.1599H214.242V21.5693H250.506Z" fill="#181818"/>
</g>
<defs>
<clipPath id="clip0_2398_21206">
<rect width="319" height="53" fill="white"/>
</clipPath>
</defs>
</svg>
