<svg width="11" height="17" viewBox="0 0 11 17" fill="none" xmlns="http://www.w3.org/2000/svg">
<path d="M5.50002 3.00002C6.32845 3.00002 7.00003 2.32845 7.00003 1.50001C7.00003 0.671578 6.32845 0 5.50002 0C4.67158 0 4 0.671578 4 1.50001C4 2.32845 4.67158 3.00002 5.50002 3.00002Z" fill="#848484"/>
<path d="M5.50002 10C6.32845 10 7.00003 9.32845 7.00003 8.50002C7.00003 7.67158 6.32845 7 5.50002 7C4.67158 7 4 7.67158 4 8.50002C4 9.32845 4.67158 10 5.50002 10Z" fill="#848484"/>
<path d="M5.50002 17C6.32845 17 7.00003 16.3285 7.00003 15.5C7.00003 14.6716 6.32845 14 5.50002 14C4.67158 14 4 14.6716 4 15.5C4 16.3285 4.67158 17 5.50002 17Z" fill="#848484"/>
</svg>
