<svg width="24" height="24" viewBox="0 0 24 24" fill="none" xmlns="http://www.w3.org/2000/svg">
<path d="M13.0433 12.3541C13.0899 12.3077 13.1268 12.2525 13.152 12.1918C13.1772 12.131 13.1902 12.0659 13.1902 12.0001C13.1902 11.9344 13.1772 11.8692 13.152 11.8085C13.1268 11.7477 13.0899 11.6926 13.0433 11.6461L8.45733 7.06113C8.17593 6.77986 8.01779 6.39834 8.0177 6.00048C8.01761 5.60262 8.17557 5.22102 8.45683 4.93963C8.73809 4.65823 9.11961 4.50009 9.51747 4.5C9.91533 4.49991 10.2969 4.65786 10.5783 4.93913L15.1643 9.52513C15.8195 10.1822 16.1875 11.0722 16.1875 12.0001C16.1875 12.928 15.8195 13.8181 15.1643 14.4751L10.5783 19.0611C10.2969 19.3424 9.91533 19.5003 9.51747 19.5003C9.11961 19.5002 8.73809 19.342 8.45683 19.0606C8.17557 18.7792 8.01761 18.3976 8.0177 17.9998C8.01779 17.6019 8.17593 17.2204 8.45733 16.9391L13.0433 12.3541Z"/>
</svg>
