<svg viewBox="0 0 40 40" fill="none" xmlns="http://www.w3.org/2000/svg">
<mask id="mask0_1429_19578" style="mask-type:alpha" maskUnits="userSpaceOnUse" x="0" y="0" width="40" height="40">
<circle cx="20" cy="20" r="20" fill="white"/>
</mask>
<g mask="url(#mask0_1429_19578)">
<circle cx="20" cy="20" r="20" fill="#D9D9D9"/>
<path d="M20 19C22.7614 19 25 16.7614 25 14C25 11.2386 22.7614 9 20 9C17.2386 9 15 11.2386 15 14C15 16.7614 17.2386 19 20 19Z" fill="white"/>
<path d="M20 21C15.0317 21.0055 11.0055 25.0317 11 30C11 30.5523 11.4477 31 12 31H28C28.5522 31 29 30.5523 29 30C28.9945 25.0317 24.9683 21.0055 20 21Z" fill="white"/>
</g>
</svg>
