<svg width="24" height="24" viewBox="0 0 24 24" fill="none" xmlns="http://www.w3.org/2000/svg">
<g clip-path="url(#clip0_1425_16777)">
<path d="M22.5555 13.6617L20.6555 6.82569C20.0986 4.82302 18.8882 3.06398 17.2168 1.82816C15.5454 0.592343 13.5089 -0.0493232 11.4309 0.00515695C9.35299 0.0596371 7.35288 0.807137 5.74853 2.12884C4.14419 3.45054 3.02767 5.27059 2.57647 7.29969L1.10547 13.9147C0.942986 14.6456 0.946742 15.4037 1.11646 16.133C1.28618 16.8623 1.61753 17.5442 2.08605 18.1282C2.55457 18.7123 3.14829 19.1837 3.82338 19.5076C4.49847 19.8316 5.23769 19.9997 5.98647 19.9997H7.10047C7.32999 21.13 7.9432 22.1462 8.83621 22.8761C9.72922 23.606 10.8471 24.0047 12.0005 24.0047C13.1538 24.0047 14.2717 23.606 15.1647 22.8761C16.0577 22.1462 16.671 21.13 16.9005 19.9997H17.7385C18.5093 19.9997 19.2697 19.8216 19.9602 19.4791C20.6508 19.1367 21.2528 18.6392 21.7193 18.0256C22.1858 17.4119 22.504 16.6987 22.6493 15.9417C22.7945 15.1847 22.7627 14.4044 22.5565 13.6617H22.5555ZM12.0005 21.9997C11.3822 21.9971 10.7798 21.8036 10.2758 21.4456C9.7717 21.0876 9.39055 20.5826 9.18447 19.9997H14.8165C14.6104 20.5826 14.2292 21.0876 13.7252 21.4456C13.2211 21.8036 12.6187 21.9971 12.0005 21.9997ZM20.1265 16.8147C19.8478 17.1844 19.4868 17.4839 19.0721 17.6897C18.6574 17.8954 18.2004 18.0015 17.7375 17.9997H5.98647C5.53725 17.9996 5.09379 17.8987 4.68881 17.7043C4.28383 17.5099 3.92768 17.227 3.64663 16.8766C3.36559 16.5261 3.16683 16.1171 3.06503 15.6795C2.96323 15.242 2.96099 14.7872 3.05847 14.3487L4.52847 7.73269C4.88282 6.1389 5.75978 4.70929 7.01993 3.67114C8.28008 2.63298 9.85109 2.04586 11.4832 2.0031C13.1154 1.96035 14.715 2.46441 16.0278 3.43516C17.3406 4.40591 18.2912 5.78764 18.7285 7.36069L20.6285 14.1967C20.754 14.6421 20.774 15.1106 20.6869 15.565C20.5997 16.0195 20.4079 16.4473 20.1265 16.8147Z" fill="#8C8C8C"/>
</g>
<defs>
<clipPath id="clip0_1425_16777">
<rect width="24" height="24" fill="white"/>
</clipPath>
</defs>
</svg>
