<svg width="26" height="28" viewBox="0 0 26 28" fill="none" xmlns="http://www.w3.org/2000/svg">
<g clip-path="url(#clip0_1612_18617)">
<path d="M22.5545 17.6617L20.6545 10.8257C20.0976 8.82302 18.8872 7.06398 17.2158 5.82816C15.5444 4.59234 13.5079 3.95068 11.43 4.00516C9.35201 4.05964 7.3519 4.80714 5.74756 6.12884C4.14321 7.45054 3.0267 9.27059 2.57549 11.2997L1.10449 17.9147C0.942009 18.6456 0.945766 19.4037 1.11549 20.133C1.28521 20.8623 1.61656 21.5442 2.08508 22.1282C2.55359 22.7123 3.14731 23.1837 3.8224 23.5076C4.4975 23.8316 5.23672 23.9997 5.98549 23.9997H7.09949C7.32901 25.13 7.94222 26.1462 8.83524 26.8761C9.72825 27.606 10.8461 28.0047 11.9995 28.0047C13.1528 28.0047 14.2707 27.606 15.1638 26.8761C16.0568 26.1462 16.67 25.13 16.8995 23.9997H17.7375C18.5083 23.9997 19.2687 23.8216 19.9592 23.4791C20.6498 23.1367 21.2518 22.6392 21.7183 22.0256C22.1848 21.4119 22.5031 20.6987 22.6483 19.9417C22.7935 19.1847 22.7618 18.4044 22.5555 17.6617H22.5545ZM11.9995 25.9997C11.3812 25.9971 10.7789 25.8036 10.2748 25.4456C9.77073 25.0876 9.38958 24.5826 9.18349 23.9997H14.8155C14.6094 24.5826 14.2283 25.0876 13.7242 25.4456C13.2201 25.8036 12.6178 25.9971 11.9995 25.9997ZM20.1255 20.8147C19.8468 21.1844 19.4858 21.4839 19.0711 21.6897C18.6564 21.8954 18.1994 22.0015 17.7365 21.9997H5.98549C5.53628 21.9996 5.09281 21.8987 4.68783 21.7043C4.28286 21.5099 3.9267 21.227 3.64566 20.8766C3.36461 20.5261 3.16585 20.1171 3.06406 19.6795C2.96226 19.242 2.96001 18.7872 3.05749 18.3487L4.52749 11.7327C4.88185 10.1389 5.7588 8.70929 7.01895 7.67114C8.2791 6.63298 9.85012 6.04586 11.4823 6.0031C13.1144 5.96035 14.714 6.46441 16.0268 7.43516C17.3396 8.40591 18.2902 9.78764 18.7275 11.3607L20.6275 18.1967C20.753 18.6421 20.773 19.1106 20.6859 19.565C20.5988 20.0195 20.4069 20.4473 20.1255 20.8147Z" fill="#8C8C8C"/>
</g>
<circle cx="19.5" cy="8.5" r="6.5" fill="#FF587A"/>
<defs>
<clipPath id="clip0_1612_18617">
<rect width="24" height="24" fill="white" transform="translate(0 4)"/>
</clipPath>
</defs>
</svg>
