<svg width="24" height="24" viewBox="0 0 24 24" fill="none" xmlns="http://www.w3.org/2000/svg">
<g clip-path="url(#clip0_2908_25618)">
<path d="M12 0C9.62663 0 7.30655 0.703788 5.33316 2.02236C3.35977 3.34094 1.8217 5.21509 0.913451 7.4078C0.00519943 9.60051 -0.232441 12.0133 0.230582 14.3411C0.693605 16.6689 1.83649 18.8071 3.51472 20.4853C5.19295 22.1635 7.33115 23.3064 9.65892 23.7694C11.9867 24.2324 14.3995 23.9948 16.5922 23.0866C18.7849 22.1783 20.6591 20.6402 21.9776 18.6668C23.2962 16.6935 24 14.3734 24 12C23.9966 8.81846 22.7312 5.76821 20.4815 3.51852C18.2318 1.26883 15.1815 0.00344108 12 0V0ZM12 22C10.0222 22 8.08879 21.4135 6.4443 20.3147C4.79981 19.2159 3.51809 17.6541 2.76121 15.8268C2.00433 13.9996 1.8063 11.9889 2.19215 10.0491C2.578 8.10929 3.53041 6.32746 4.92894 4.92893C6.32746 3.53041 8.10929 2.578 10.0491 2.19215C11.9889 1.8063 13.9996 2.00433 15.8268 2.7612C17.6541 3.51808 19.2159 4.79981 20.3147 6.4443C21.4135 8.08879 22 10.0222 22 12C21.9971 14.6513 20.9426 17.1931 19.0679 19.0679C17.1931 20.9426 14.6513 21.9971 12 22Z" fill="#FF587A"/>
<path d="M12 10.0002H11C10.7348 10.0002 10.4804 10.1056 10.2929 10.2931C10.1054 10.4807 10 10.735 10 11.0002C10 11.2655 10.1054 11.5198 10.2929 11.7074C10.4804 11.8949 10.7348 12.0002 11 12.0002H12V18.0002C12 18.2655 12.1054 18.5198 12.2929 18.7074C12.4804 18.8949 12.7348 19.0002 13 19.0002C13.2652 19.0002 13.5196 18.8949 13.7071 18.7074C13.8946 18.5198 14 18.2655 14 18.0002V12.0002C14 11.4698 13.7893 10.9611 13.4142 10.586C13.0391 10.211 12.5304 10.0002 12 10.0002Z" fill="#FF587A"/>
<path d="M12 7.99976C12.8284 7.99976 13.5 7.32818 13.5 6.49976C13.5 5.67133 12.8284 4.99976 12 4.99976C11.1716 4.99976 10.5 5.67133 10.5 6.49976C10.5 7.32818 11.1716 7.99976 12 7.99976Z" fill="#FF587A"/>
</g>
<defs>
<clipPath id="clip0_2908_25618">
<rect width="24" height="24" fill="white"/>
</clipPath>
</defs>
</svg>
