<svg width="79" height="61" viewBox="0 0 79 61" fill="none" xmlns="http://www.w3.org/2000/svg">
<g id="Frame 1437256114">
<path id="Rectangle 39590580" d="M0.5 56C0.5 53.5147 2.51472 51.5 5 51.5H74C76.4853 51.5 78.5 53.5147 78.5 56C78.5 58.4853 76.4853 60.5 74 60.5H5C2.51472 60.5 0.5 58.4853 0.5 56Z" fill="#7782FF" stroke="black"/>
<path id="Rectangle 39590581" d="M11.553 52.5874L11.5531 52.5873L11.5474 52.5799L1.75136 39.6483L50.0852 1.50401L73.6499 31.3635L49.4886 50.4312L49.4868 50.4327L42.3477 56.0136L13.9336 55.8553L11.553 52.5874Z" fill="white" stroke="black"/>
<path id="Vector 1187" d="M13 56L44 56" stroke="black" stroke-linecap="round"/>
<path id="Vector 1188" d="M30.6745 38.5809L40.6959 40.8227L42.0798 25.3397" stroke="black"/>
</g>
</svg>
