<svg width="16" height="16" viewBox="0 0 16 16" fill="none" xmlns="http://www.w3.org/2000/svg">
<path d="M14.7379 1.30786C13.8844 0.454293 12.679 0.320007 11.2558 0.320007H4.72687C3.3208 0.320007 2.11544 0.453936 1.26151 1.30786C0.407941 2.16144 0.282227 3.35858 0.282227 4.75644V11.2186C0.282227 12.65 0.407584 13.8386 1.26151 14.6922C2.11508 15.5457 3.3208 15.68 4.75187 15.68H11.2558C12.679 15.68 13.8844 15.5461 14.7379 14.6922C15.5919 13.8386 15.7172 12.65 15.7172 11.2186V4.78144C15.7172 3.35001 15.5919 2.15286 14.7379 1.30786ZM14.3697 4.54715V11.4447C14.3697 12.315 14.2608 13.2022 13.759 13.7129C13.2483 14.215 12.344 14.3322 11.4819 14.3322H4.51758C3.65544 14.3322 2.75151 14.215 2.24937 13.7129C1.73866 13.2022 1.62973 12.315 1.62973 11.4443V4.57251C1.62973 3.69394 1.73866 2.78965 2.2408 2.28751C2.75151 1.77679 3.66365 1.66822 4.54258 1.66822H11.4819C12.344 1.66822 13.2479 1.78536 13.7587 2.28751C14.2608 2.79822 14.3697 3.68501 14.3697 4.54715ZM7.99973 12.4657C8.33473 12.4657 8.60258 12.2061 8.60258 11.8714V8.59858H11.8754C12.2101 8.59858 12.4779 8.31394 12.4779 8.00429C12.4779 7.67786 12.2101 7.40144 11.8754 7.40144H8.60258V4.12036C8.60258 3.78536 8.33473 3.52608 7.99973 3.52608C7.92136 3.52492 7.84357 3.53951 7.77094 3.56896C7.69832 3.59842 7.63235 3.64215 7.57693 3.69757C7.52151 3.75298 7.47778 3.81896 7.44832 3.89158C7.41887 3.96421 7.40428 4.042 7.40544 4.12036V7.40144H4.13258C3.79758 7.40144 3.52973 7.67786 3.52973 8.00429C3.52973 8.31394 3.79758 8.59858 4.13258 8.59858H7.40544V11.8714C7.40544 12.2061 7.66508 12.4657 7.99973 12.4657Z" fill="black"/>
</svg>
