<svg width="24" height="24" viewBox="0 0 24 24" fill="none" xmlns="http://www.w3.org/2000/svg">
<path d="M10.9567 12.3541C10.9101 12.3077 10.8732 12.2525 10.848 12.1918C10.8228 12.131 10.8098 12.0659 10.8098 12.0001C10.8098 11.9344 10.8228 11.8692 10.848 11.8085C10.8732 11.7477 10.9101 11.6926 10.9567 11.6461L15.5427 7.06113C15.8241 6.77986 15.9822 6.39834 15.9823 6.00048C15.9824 5.60262 15.8244 5.22102 15.5432 4.93963C15.2619 4.65823 14.8804 4.50009 14.4825 4.5C14.0847 4.49991 13.7031 4.65786 13.4217 4.93913L8.83568 9.52513C8.18045 10.1822 7.8125 11.0722 7.8125 12.0001C7.8125 12.928 8.18045 13.8181 8.83568 14.4751L13.4217 19.0611C13.7031 19.3424 14.0847 19.5003 14.4825 19.5003C14.8804 19.5002 15.2619 19.342 15.5432 19.0606C15.8244 18.7792 15.9824 18.3976 15.9823 17.9998C15.9822 17.6019 15.8241 17.2204 15.5427 16.9391L10.9567 12.3541Z"/>
</svg>
