<svg width="50" height="50" viewBox="0 0 32 32" fill="none" xmlns="http://www.w3.org/2000/svg">
<circle cx="16" cy="16" r="16" fill="#F6F6F7"/>
<path fill-rule="evenodd" clip-rule="evenodd" d="M19.7488 11.9156C19.7489 12.4299 19.6476 12.9391 19.4509 13.4142C19.2541 13.8894 18.9657 14.3211 18.6021 14.6847C18.2385 15.0484 17.8068 15.3369 17.3318 15.5338C16.8567 15.7306 16.3475 15.8319 15.8332 15.832C14.7946 15.8321 13.7985 15.4196 13.0641 14.6853C12.3296 13.951 11.9169 12.955 11.9168 11.9164C11.9167 11.4021 12.018 10.8929 12.2147 10.4178C12.4115 9.94265 12.6999 9.51092 13.0635 9.14725C13.7978 8.41279 14.7938 8.00011 15.8324 8C16.871 7.99989 17.8671 8.41237 18.6015 9.14669C19.336 9.881 19.7487 10.877 19.7488 11.9156M15.8328 17.03C10.1936 17.03 8 20.6188 8 22.2884C8 23.9572 12.6696 24.402 15.8328 24.402C18.996 24.402 23.6656 23.9572 23.6656 22.2884C23.6656 20.6188 21.472 17.03 15.8328 17.03Z" fill="#D1D3D6"/>
</svg>
