<svg width="77" height="61" viewBox="0 0 77 61" fill="none" xmlns="http://www.w3.org/2000/svg">
<g id="Frame 1835563658">
<path id="Vector" d="M34.2879 46.9651L34.2878 46.9651C34.0016 46.446 34.1589 45.7314 34.6449 45.4165L38.9992 42.5964L38.9992 42.5964C39.4306 42.3169 39.9574 42.465 40.2271 42.9214L40.5566 42.722L40.2272 42.9214C42.2294 46.3084 44.9111 48.7935 48.6023 50.154C50.6366 50.9039 52.466 51.0006 53.935 50.4172C55.4145 49.8296 56.4742 48.5731 56.9994 46.7406C57.4991 44.9966 57.4749 43.5364 56.5932 41.9677C55.738 40.446 54.093 38.8572 51.479 36.7716L51.4783 36.771C47.421 33.5481 44.93 30.6331 43.6793 27.7276C42.4357 24.8385 42.3971 21.9085 43.344 18.6044C44.4675 14.6837 46.8802 12.0344 50.0264 10.7336C53.1788 9.43028 57.0975 9.46959 61.2378 10.9957C66.7668 13.0337 70.2555 16.2108 72.6505 20.5424L72.6506 20.5424C72.935 21.0567 72.7884 21.7634 72.3135 22.0859L68.2991 24.8113C68.2991 24.8113 68.299 24.8113 68.299 24.8113C67.8765 25.0981 67.3534 24.9665 67.0707 24.5263C65.1607 21.5509 62.8489 19.5748 59.8654 18.4751C58.1571 17.8454 56.5987 17.7184 55.3413 18.1551C54.0685 18.5973 53.152 19.6013 52.7174 21.1178C52.5008 21.8735 52.4117 22.581 52.5117 23.2932C52.6121 24.0082 52.8984 24.695 53.3849 25.414C54.342 26.8284 56.1171 28.4252 58.9274 30.6885C62.3224 33.4531 64.7966 36.0925 66.1382 39.0434C67.4713 41.9758 67.7081 45.2667 66.5282 49.3839C65.3458 53.51 62.8763 56.4452 59.4935 57.9076C56.106 59.3719 51.7612 59.3765 46.8045 57.5494C40.5772 55.2541 36.6344 51.2226 34.2879 46.9651Z" fill="#FFDB5B" stroke="black" stroke-width="0.8"/>
<path id="Vector_2" d="M31.1249 40.6422L31.1249 40.6427C31.1708 41.7606 30.5167 42.5766 29.6953 42.8321C28.8741 43.0876 27.9445 42.7645 27.4805 41.7773C27.4802 41.7767 27.48 41.7761 27.4797 41.7755L12.1907 10.0125L12.189 10.009L12.189 10.009C12.0599 9.73369 11.8552 9.52327 11.6159 9.40556L11.7993 9.03971L11.6159 9.40556C11.3776 9.28837 11.119 9.26936 10.8808 9.34174L2.07922 12.0164C1.39259 12.2251 0.980816 13.1835 1.4133 13.9971C1.41352 13.9975 1.41373 13.9979 1.41395 13.9983L25.9388 59.2079L25.9402 59.2105C26.0762 59.4659 26.2784 59.6574 26.5098 59.7628C26.7402 59.8678 26.9875 59.8824 27.2161 59.8129L39.0344 56.2215C39.0344 56.2215 39.0345 56.2214 39.0345 56.2214C39.2649 56.1514 39.4741 55.9965 39.6277 55.7721C39.782 55.5467 39.8716 55.2627 39.8741 54.9618L40.3048 2.16533C40.3123 1.22132 39.5371 0.63345 38.8548 0.840813L30.4534 3.39388C30.2131 3.4669 29.9958 3.63223 29.8409 3.87216C29.6853 4.11309 29.6023 4.41511 29.6152 4.72945L31.1249 40.6422ZM31.1249 40.6422L29.6152 4.72984L31.1249 40.6422Z" fill="#7782FF" stroke="black" stroke-width="0.8"/>
</g>
</svg>
