<svg width="101" height="83" viewBox="0 0 101 83" fill="none" xmlns="http://www.w3.org/2000/svg">
<g id="Frame 1437256116">
<path id="Vector" d="M81.6532 32.0085C79.3611 28.4522 76.5904 26.0945 73.0155 24.7821C70.9682 24.0304 69.1101 23.8825 67.6171 24.3991C66.1084 24.921 65.0198 26.1059 64.5023 27.9045C64.2434 28.8044 64.1385 29.6413 64.2568 30.4806C64.3755 31.3226 64.7142 32.1342 65.2943 32.988C66.4386 34.6723 68.5663 36.5805 71.954 39.2978C76.0481 42.6184 79.0421 45.7964 80.6671 49.3565C82.2836 52.898 82.5676 56.8684 81.1419 61.8238C79.7117 66.7945 76.7227 70.3356 72.6247 72.1C68.5219 73.8665 63.2662 73.8691 57.2795 71.6713C49.756 68.9093 44.9895 64.0562 42.1527 58.9298L42.1526 58.9298C41.7856 58.2667 41.9877 57.3634 42.6058 56.9645C42.6059 56.9645 42.6059 56.9645 42.6059 56.9645L47.8519 53.5803L47.852 53.5803C48.408 53.2215 49.0945 53.4117 49.4445 54.0015L49.7741 53.8014L49.4446 54.0016C51.8479 58.0508 55.0638 61.0179 59.4898 62.6428C61.9287 63.5381 64.1121 63.65 65.8595 62.9588C67.6178 62.2632 68.8807 60.7756 69.508 58.5955C70.106 56.5171 70.0744 54.7898 69.027 52.9335C68.0061 51.1244 66.037 49.2273 62.8876 46.7244L62.8868 46.7238C57.9932 42.8522 54.9791 39.3431 53.4638 35.8369C51.9557 32.3474 51.911 28.8106 53.0557 24.8321C54.4154 20.1061 57.3372 16.9088 61.1494 15.3389C64.968 13.7664 69.7098 13.8158 74.7133 15.6528C81.3934 18.1052 85.6138 21.9315 88.5102 27.149L88.5102 27.1491C88.8748 27.8056 88.6864 28.699 88.0824 29.1075L83.2458 32.378C83.2458 32.378 83.2458 32.378 83.2458 32.378C82.7014 32.746 82.02 32.5774 81.6532 32.0085ZM81.6532 32.0085L81.3323 32.2226L81.6532 32.0085Z" fill="#FFDB5B" stroke="black" stroke-width="0.8"/>
<path id="Vector_2" d="M38.3288 51.3137L38.3288 51.3141C38.3826 52.6185 37.6188 53.5605 36.6678 53.8552C35.717 54.1497 34.6346 53.78 34.0912 52.628C34.0909 52.6274 34.0906 52.6268 34.0903 52.6262L15.6695 14.51L15.6679 14.5065L15.6679 14.5064C15.5056 14.1618 15.2475 13.8965 14.9429 13.7473C14.6394 13.5986 14.3076 13.5735 14.0002 13.6665L3.3959 16.8762C2.50535 17.1457 2.0015 18.363 2.54094 19.3733C2.54116 19.3737 2.54138 19.3741 2.5416 19.3745L32.0899 73.6266L32.0914 73.6292C32.2623 73.949 32.5176 74.1908 32.8122 74.3244C33.1059 74.4577 33.4233 74.4771 33.7182 74.3878L47.9573 70.078C48.2545 69.988 48.5228 69.7894 48.7186 69.5045C48.915 69.2187 49.0276 68.8609 49.0307 68.4841C49.0307 68.4841 49.0307 68.4841 49.0307 68.484L49.5498 5.12828C49.5591 3.95603 48.5887 3.19756 47.7038 3.46541L37.5817 6.52909C37.2715 6.62295 36.9932 6.83498 36.7958 7.13932C36.5978 7.44461 36.4937 7.82487 36.5099 8.2183L38.3288 51.3137ZM38.3288 51.3137L36.5099 8.21869L38.3288 51.3137Z" fill="#7782FF" stroke="black" stroke-width="0.8"/>
</g>
</svg>
