<svg width="113" height="42" viewBox="0 0 113 42" fill="none" xmlns="http://www.w3.org/2000/svg">
<path fill-rule="evenodd" clip-rule="evenodd" d="M58.7765 1.0812C58.0308 -0.360399 55.9692 -0.3604 55.2235 1.0812L52.8138 5.74031L5 5.7403C2.23858 5.7403 2.95152e-06 7.97888 2.71011e-06 10.7403L0 36.7403C0 39.5017 2.23858 41.7403 5 41.7403L108 41.7403C110.761 41.7403 113 39.5017 113 36.7403V10.7403C113 7.97889 110.761 5.74031 108 5.74031L61.1862 5.74031L58.7765 1.0812Z" fill="#FF587A"/>
<path d="M28.0547 27.4824H26.3203V24.4824H28.0547V27.4824ZM27.6875 19.834C27.6823 20.6361 27.526 21.3809 27.2188 22.0684C26.9115 22.7507 26.4609 23.3418 25.8672 23.8418C25.2734 24.3366 24.5547 24.6986 23.7109 24.9277L22.8906 23.6152C23.6146 23.4121 24.2318 23.1204 24.7422 22.7402C25.2526 22.36 25.638 21.9225 25.8984 21.4277C26.1589 20.9277 26.2891 20.3965 26.2891 19.834V19.4902H27.6875V19.834ZM28.0625 19.834C28.0625 20.3704 28.1953 20.8783 28.4609 21.3574C28.7266 21.8366 29.1172 22.2611 29.6328 22.6309C30.1484 23.0007 30.7682 23.2793 31.4922 23.4668L30.6953 24.8105C29.8464 24.5814 29.1172 24.222 28.5078 23.7324C27.9036 23.2428 27.4427 22.6647 27.125 21.998C26.8073 21.3314 26.6484 20.61 26.6484 19.834V19.4902H28.0625V19.834ZM31.1016 20.0449H23.3047V18.6465H31.1016V20.0449ZM28.0547 19.2715H26.3203V17.0371H28.0547V19.2715ZM34.25 31.0605H32.5312V16.9121H34.25V31.0605ZM22.7891 26.8887C24.5234 26.8887 26.112 26.8574 27.5547 26.7949C28.9974 26.7324 30.3724 26.6022 31.6797 26.4043L31.8125 27.6855C30.8333 27.8678 29.8203 28.0059 28.7734 28.0996C27.7266 28.1882 26.7344 28.2454 25.7969 28.2715C24.8594 28.2975 23.8516 28.3079 22.7734 28.3027L22.5547 26.8887H22.7891ZM46.1375 19.123H37.1141V17.7324H46.1375V19.123ZM48.4344 24.6543H35.5281V23.248H48.4344V24.6543ZM46.8484 18.8965C46.8484 19.8079 46.8224 20.6257 46.7703 21.3496C46.7234 22.0736 46.601 22.8939 46.4031 23.8105L44.6766 23.6543C44.8068 23.0449 44.9031 22.472 44.9656 21.9355C45.0333 21.3991 45.075 20.9225 45.0906 20.5059C45.1062 20.084 45.1141 19.5866 45.1141 19.0137V18.8965V17.7324H46.8484V18.8965ZM47.2625 30.748H37.1922V29.334H47.2625V30.748ZM38.9031 29.498H37.1922V26.0059H38.9031V29.498ZM64.475 29.3965H51.5688V27.9668H64.475V29.3965ZM58.8422 28.5762H57.1313V25.1777H58.8422V28.5762ZM62.9359 22.4121H54.8266V24.9746H53.0922V21.0449H61.225V19.2793H53.0688V17.873H62.9359V22.4121ZM63.2719 25.6543H53.0922V24.2402H63.2719V25.6543ZM75.0187 19.6934H65.9484V18.2793H75.0187V19.6934ZM77.4562 29.0918H64.5969V27.6777H77.4562V29.0918ZM75.8234 19.9746C75.8234 20.7923 75.813 21.5007 75.7922 22.0996C75.7766 22.6986 75.7323 23.3861 75.6594 24.1621C75.5865 24.9382 75.4719 25.7793 75.3156 26.6855L73.5422 26.5371C73.7141 25.6934 73.8391 24.8913 73.9172 24.1309C73.9953 23.3704 74.0448 22.6908 74.0656 22.0918C74.0865 21.4928 74.0969 20.7819 74.0969 19.959V19.8809V18.2793H75.8234V19.8809V19.9746ZM89.375 27.1309H87.6328V16.9277H89.375V27.1309ZM89.7734 30.7715H80.0312V29.3496H89.7734V30.7715ZM81.7812 29.9043H80.0312V26.0996H81.7812V29.9043ZM81.6797 17.8496C82.388 17.8496 83.0312 18.0033 83.6094 18.3105C84.1927 18.6126 84.651 19.0319 84.9844 19.5684C85.3177 20.0996 85.4844 20.7012 85.4844 21.373C85.4844 22.0605 85.3177 22.6751 84.9844 23.2168C84.651 23.7533 84.1953 24.1725 83.6172 24.4746C83.0391 24.7767 82.3932 24.9277 81.6797 24.9277C80.9661 24.9277 80.3203 24.7767 79.7422 24.4746C79.1693 24.1725 78.7135 23.7533 78.375 23.2168C78.0417 22.6751 77.875 22.0605 77.875 21.373C77.875 20.7012 78.0417 20.0996 78.375 19.5684C78.7135 19.0319 79.1693 18.6126 79.7422 18.3105C80.3203 18.0033 80.9661 17.8496 81.6797 17.8496ZM81.6797 19.373C81.2786 19.373 80.9167 19.4564 80.5938 19.623C80.276 19.7845 80.026 20.0189 79.8438 20.3262C79.6615 20.6283 79.5703 20.9772 79.5703 21.373C79.5703 21.7845 79.6615 22.1439 79.8438 22.4512C80.026 22.7585 80.276 22.9954 80.5938 23.1621C80.9167 23.3288 81.2786 23.4095 81.6797 23.4043C82.0755 23.4095 82.4323 23.3288 82.75 23.1621C83.0677 22.9954 83.3151 22.7585 83.4922 22.4512C83.6745 22.1439 83.7656 21.7845 83.7656 21.373C83.7656 20.9772 83.6745 20.6283 83.4922 20.3262C83.3151 20.0189 83.0677 19.7845 82.75 19.623C82.4323 19.4564 82.0755 19.373 81.6797 19.373Z" fill="white"/>
</svg>
