<svg width="24" height="24" viewBox="0 0 24 24" fill="none" xmlns="http://www.w3.org/2000/svg">
<path d="M11.4375 1.5V0.75C11.4375 0.600816 11.4968 0.457742 11.6023 0.352252C11.7077 0.246763 11.8508 0.1875 12 0.1875C12.1492 0.1875 12.2923 0.246763 12.3977 0.352252C12.5032 0.457742 12.5625 0.600816 12.5625 0.75V1.5C12.5625 1.64918 12.5032 1.79226 12.3977 1.89775C12.2923 2.00324 12.1492 2.0625 12 2.0625C11.8508 2.0625 11.7077 2.00324 11.6023 1.89775C11.4968 1.79226 11.4375 1.64918 11.4375 1.5ZM18.75 4.3125C18.8991 4.31237 19.0421 4.25302 19.1475 4.1475L19.8975 3.3975C19.9528 3.346 19.9971 3.2839 20.0278 3.2149C20.0586 3.1459 20.0751 3.07142 20.0764 2.99589C20.0778 2.92036 20.0639 2.84534 20.0356 2.7753C20.0073 2.70526 19.9652 2.64164 19.9118 2.58822C19.8584 2.53481 19.7947 2.4927 19.7247 2.46441C19.6547 2.43612 19.5796 2.42222 19.5041 2.42356C19.4286 2.42489 19.3541 2.44142 19.2851 2.47216C19.2161 2.50291 19.154 2.54724 19.1025 2.6025L18.3525 3.3525C18.2739 3.43116 18.2204 3.53135 18.1988 3.6404C18.1771 3.74945 18.1883 3.86247 18.2308 3.96519C18.2733 4.06791 18.3453 4.15573 18.4378 4.21754C18.5302 4.27936 18.6388 4.3124 18.75 4.3125ZM4.8525 4.1475C4.95913 4.24686 5.10017 4.30095 5.24589 4.29838C5.39162 4.29581 5.53066 4.23678 5.63372 4.13372C5.73678 4.03066 5.79581 3.89162 5.79838 3.74589C5.80095 3.60017 5.74686 3.45913 5.6475 3.3525L4.8975 2.6025C4.79087 2.50314 4.64983 2.44905 4.50411 2.45162C4.35838 2.45419 4.21934 2.51322 4.11628 2.61628C4.01322 2.71934 3.95419 2.85838 3.95162 3.00411C3.94905 3.14983 4.00314 3.29087 4.1025 3.3975L4.8525 4.1475ZM12.8438 6.945C12.7709 6.93269 12.6963 6.93485 12.6242 6.95137C12.5522 6.96789 12.4841 6.99843 12.4238 7.04126C12.3022 7.12777 12.2199 7.25905 12.195 7.40625C12.1701 7.55345 12.2048 7.70449 12.2913 7.82615C12.3778 7.94782 12.5091 8.03014 12.6562 8.055C14.5312 8.36812 15.9375 10.065 15.9375 12C15.9375 12.1492 15.9968 12.2923 16.1023 12.3977C16.2077 12.5032 16.3508 12.5625 16.5 12.5625C16.6492 12.5625 16.7923 12.5032 16.8977 12.3977C17.0032 12.2923 17.0625 12.1492 17.0625 12C17.0625 9.52219 15.2484 7.34906 12.8438 6.945ZM21.5625 16.5V18.75C21.5625 19.0981 21.4242 19.4319 21.1781 19.6781C20.9319 19.9242 20.5981 20.0625 20.25 20.0625H3.75C3.4019 20.0625 3.06806 19.9242 2.82192 19.6781C2.57578 19.4319 2.4375 19.0981 2.4375 18.75V16.5C2.4375 16.1519 2.57578 15.8181 2.82192 15.5719C3.06806 15.3258 3.4019 15.1875 3.75 15.1875H3.9375V12C3.9375 9.86169 4.78694 7.81096 6.29895 6.29895C7.81096 4.78694 9.86169 3.9375 12 3.9375H12.0609C16.4728 3.97031 20.0625 7.62937 20.0625 12.0938V15.1875H20.25C20.5981 15.1875 20.9319 15.3258 21.1781 15.5719C21.4242 15.8181 21.5625 16.1519 21.5625 16.5ZM5.0625 15.1875H18.9375V12.0938C18.9375 8.25 15.8494 5.09062 12.0525 5.0625H12C10.1601 5.0625 8.39548 5.79341 7.09445 7.09445C5.79341 8.39548 5.0625 10.1601 5.0625 12V15.1875ZM20.4375 16.5C20.4375 16.4503 20.4177 16.4026 20.3826 16.3674C20.3474 16.3323 20.2997 16.3125 20.25 16.3125H3.75C3.70027 16.3125 3.65258 16.3323 3.61742 16.3674C3.58225 16.4026 3.5625 16.4503 3.5625 16.5V18.75C3.5625 18.7997 3.58225 18.8474 3.61742 18.8826C3.65258 18.9177 3.70027 18.9375 3.75 18.9375H20.25C20.2997 18.9375 20.3474 18.9177 20.3826 18.8826C20.4177 18.8474 20.4375 18.7997 20.4375 18.75V16.5Z" fill="#A783AA"/>
</svg>

