<svg
      width="12"
      height="12"
      viewBox="0 0 12 12"
      fill="none"
      xmlns="http://www.w3.org/2000/svg"
    >
      <g clipPath="url(#clip0_625_1241)">
        <rect width="12" height="12" fill="white" fillOpacity="0.01" />
        <path
          fillRule="evenodd"
          clipRule="evenodd"
          d="M3.48419 1.23371C3.51903 1.19878 3.56041 1.17108 3.60597 1.15217C3.65153 1.13327 3.70037 1.12354 3.74969 1.12354C3.79902 1.12354 3.84786 1.13327 3.89342 1.15217C3.93898 1.17108 3.98036 1.19878 4.01519 1.23371L8.51519 5.73371C8.55012 5.76854 8.57782 5.80992 8.59673 5.85548C8.61563 5.90104 8.62536 5.94988 8.62536 5.99921C8.62536 6.04853 8.61563 6.09737 8.59673 6.14293C8.57782 6.18849 8.55012 6.22987 8.51519 6.26471L4.01519 10.7647C3.94478 10.8351 3.84928 10.8747 3.74969 10.8747C3.65011 10.8747 3.55461 10.8351 3.48419 10.7647C3.41378 10.6943 3.37422 10.5988 3.37422 10.4992C3.37422 10.3996 3.41378 10.3041 3.48419 10.2337L7.71944 5.99921L3.48419 1.76471C3.44927 1.72987 3.42156 1.68849 3.40266 1.64293C3.38375 1.59737 3.37402 1.54853 3.37402 1.49921C3.37402 1.44988 3.38375 1.40104 3.40266 1.35548C3.42156 1.30992 3.44927 1.26854 3.48419 1.23371Z"
          fill="#393E46"
        />
      </g>
      <defs>
        <clipPath id="clip0_625_1241">
          <rect width="12" height="12" fill="white" />
        </clipPath>
      </defs>
    </svg>