<svg width="6" height="10" viewBox="0 0 6 10" fill="none" xmlns="http://www.w3.org/2000/svg">
<path fill-rule="evenodd" clip-rule="evenodd" d="M0.484194 0.233706C0.519028 0.198783 0.56041 0.171076 0.605968 0.152171C0.651527 0.133266 0.700368 0.123535 0.749694 0.123535C0.799019 0.123535 0.84786 0.133266 0.893419 0.152171C0.938978 0.171076 0.980359 0.198783 1.01519 0.233706L5.51519 4.73371C5.55012 4.76854 5.57782 4.80992 5.59673 4.85548C5.61563 4.90104 5.62536 4.94988 5.62536 4.99921C5.62536 5.04853 5.61563 5.09737 5.59673 5.14293C5.57782 5.18849 5.55012 5.22987 5.51519 5.26471L1.01519 9.76471C0.944779 9.83512 0.849275 9.87468 0.749694 9.87468C0.650112 9.87468 0.554609 9.83512 0.484194 9.76471C0.413779 9.69429 0.37422 9.59879 0.37422 9.49921C0.37422 9.39962 0.413779 9.30412 0.484194 9.23371L4.71944 4.99921L0.484194 0.764706C0.449271 0.729871 0.421564 0.68849 0.402659 0.642931C0.383754 0.597372 0.374023 0.548531 0.374023 0.499206C0.374023 0.44988 0.383754 0.401039 0.402659 0.35548C0.421564 0.309921 0.449271 0.26854 0.484194 0.233706Z" fill="#393E46"/>
</svg>
