<svg width="24" height="25" viewBox="0 0 24 25" fill="none" xmlns="http://www.w3.org/2000/svg">
<path d="M18 22.5C17.1667 22.5 16.4583 22.2083 15.875 21.625C15.2917 21.0417 15 20.3333 15 19.5C15 19.3833 15.0083 19.2623 15.025 19.137C15.0417 19.0117 15.0667 18.8993 15.1 18.8L8.05 14.7C7.76667 14.95 7.45 15.146 7.1 15.288C6.75 15.43 6.38333 15.5007 6 15.5C5.16667 15.5 4.45833 15.2083 3.875 14.625C3.29167 14.0417 3 13.3333 3 12.5C3 11.6667 3.29167 10.9583 3.875 10.375C4.45833 9.79167 5.16667 9.5 6 9.5C6.38333 9.5 6.75 9.571 7.1 9.713C7.45 9.855 7.76667 10.0507 8.05 10.3L15.1 6.2C15.0667 6.1 15.0417 5.98767 15.025 5.863C15.0083 5.73833 15 5.61733 15 5.5C15 4.66667 15.2917 3.95833 15.875 3.375C16.4583 2.79167 17.1667 2.5 18 2.5C18.8333 2.5 19.5417 2.79167 20.125 3.375C20.7083 3.95833 21 4.66667 21 5.5C21 6.33333 20.7083 7.04167 20.125 7.625C19.5417 8.20833 18.8333 8.5 18 8.5C17.6167 8.5 17.25 8.42933 16.9 8.288C16.55 8.14667 16.2333 7.95067 15.95 7.7L8.9 11.8C8.93333 11.9 8.95833 12.0127 8.975 12.138C8.99167 12.2633 9 12.384 9 12.5C9 12.616 8.99167 12.737 8.975 12.863C8.95833 12.989 8.93333 13.1013 8.9 13.2L15.95 17.3C16.2333 17.05 16.55 16.8543 16.9 16.713C17.25 16.5717 17.6167 16.5007 18 16.5C18.8333 16.5 19.5417 16.7917 20.125 17.375C20.7083 17.9583 21 18.6667 21 19.5C21 20.3333 20.7083 21.0417 20.125 21.625C19.5417 22.2083 18.8333 22.5 18 22.5Z" fill="currentColor"/>
</svg>
