<svg width="157" height="42" viewBox="0 0 157 42" fill="none" xmlns="http://www.w3.org/2000/svg">
<mask id="path-1-inside-1_2398_21651" fill="white">
<path fill-rule="evenodd" clip-rule="evenodd" d="M5 0C2.23858 0 0 2.23858 0 5V31C0 33.7614 2.23857 36 5 36H133.814L136.224 40.6591C136.969 42.1007 139.031 42.1007 139.776 40.6591L142.186 36H152C154.761 36 157 33.7614 157 31V5C157 2.23858 154.761 0 152 0H5Z"/>
</mask>
<path fill-rule="evenodd" clip-rule="evenodd" d="M5 0C2.23858 0 0 2.23858 0 5V31C0 33.7614 2.23857 36 5 36H133.814L136.224 40.6591C136.969 42.1007 139.031 42.1007 139.776 40.6591L142.186 36H152C154.761 36 157 33.7614 157 31V5C157 2.23858 154.761 0 152 0H5Z" fill="white"/>
<path d="M133.814 36L134.702 35.5406L134.422 35H133.814V36ZM136.224 40.6591L135.335 41.1185L136.224 40.6591ZM139.776 40.6591L140.665 41.1185L139.776 40.6591ZM142.186 36V35H141.578L141.298 35.5406L142.186 36ZM1 5C1 2.79086 2.79086 1 5 1V-1C1.68629 -1 -1 1.68629 -1 5H1ZM1 31V5H-1V31H1ZM5 35C2.79086 35 1 33.2091 1 31H-1C-1 34.3137 1.68629 37 5 37V35ZM133.814 35H5V37H133.814V35ZM137.112 40.1997L134.702 35.5406L132.926 36.4594L135.335 41.1185L137.112 40.1997ZM138.888 40.1997C138.515 40.9205 137.485 40.9205 137.112 40.1997L135.335 41.1185C136.454 43.2808 139.546 43.2808 140.665 41.1185L138.888 40.1997ZM141.298 35.5406L138.888 40.1997L140.665 41.1185L143.074 36.4594L141.298 35.5406ZM152 35H142.186V37H152V35ZM156 31C156 33.2091 154.209 35 152 35V37C155.314 37 158 34.3137 158 31H156ZM156 5V31H158V5H156ZM152 1C154.209 1 156 2.79086 156 5H158C158 1.68629 155.314 -1 152 -1V1ZM5 1H152V-1H5V1Z" fill="#7782FF" mask="url(#path-1-inside-1_2398_21651)"/>
<path d="M30.5691 16.9282V17.9558H27.9945V16.9282H30.5691ZM28.3149 11.3812V25.2597H27.0884V11.3812H28.3149ZM19.3536 12.7514V21.337H18.1381V12.7514H19.3536ZM19.2431 20.7072C20.3481 20.7072 21.4309 20.6593 22.4917 20.5635C23.5562 20.4641 24.6427 20.2983 25.7514 20.0663L25.9061 21.116C24.7716 21.3407 23.6611 21.5009 22.5746 21.5967C21.4917 21.6888 20.3812 21.7348 19.2431 21.7348H18.1381V20.7072H19.2431ZM41.8071 17.8895V18.884H32.216V17.8895H41.8071ZM43.3099 22.4862V23.5138H30.5917V22.4862H43.3099ZM37.5198 18.3204V22.9061H36.3044V18.3204H37.5198ZM41.6745 12.5083V13.5138H33.4425V18.3536H32.216V12.5083H41.6745ZM58.2829 11.3812V25.2928H57.0564V11.3812H58.2829ZM50.9017 12.453C51.5868 12.4567 52.1982 12.6593 52.736 13.0608C53.2737 13.4586 53.6936 14.0221 53.9956 14.7514C54.2977 15.4807 54.4487 16.3278 54.4487 17.2928C54.4487 18.2615 54.2977 19.1123 53.9956 19.8453C53.6936 20.5746 53.2719 21.1381 52.7304 21.5359C52.1927 21.9337 51.5831 22.1326 50.9017 22.1326C50.2129 22.1326 49.5997 21.9337 49.0619 21.5359C48.5279 21.1381 48.1098 20.5746 47.8078 19.8453C47.5058 19.116 47.3547 18.2652 47.3547 17.2928C47.3547 16.3241 47.5058 15.4751 47.8078 14.7459C48.1098 14.0129 48.5279 13.4494 49.0619 13.0552C49.5997 12.6575 50.2129 12.4567 50.9017 12.453ZM50.9017 13.547C50.4413 13.5506 50.0306 13.709 49.6697 14.0221C49.3124 14.3315 49.0343 14.7698 48.8354 15.337C48.6365 15.9006 48.5371 16.5525 48.5371 17.2928C48.5371 18.0368 48.6365 18.6924 48.8354 19.2597C49.0343 19.8269 49.3124 20.2652 49.6697 20.5746C50.0306 20.884 50.4413 21.0387 50.9017 21.0387C51.3621 21.0387 51.7691 20.884 52.1227 20.5746C52.48 20.2652 52.7581 19.8269 52.957 19.2597C53.1559 18.6924 53.2553 18.0368 53.2553 17.2928C53.2553 16.5525 53.1559 15.9006 52.957 15.337C52.7581 14.7698 52.48 14.3315 52.1227 14.0221C51.7691 13.709 51.3621 13.5506 50.9017 13.547ZM61.5099 18.663C62.9538 18.663 64.1287 18.6372 65.0348 18.5856C65.9409 18.5304 66.8506 18.4236 67.7641 18.2652L67.8746 19.2928C66.9317 19.4475 65.998 19.5506 65.0735 19.6022C64.1527 19.6538 62.9648 19.6796 61.5099 19.6796H60.4381V18.663H61.5099ZM66.6149 12.3646V16.4199H61.6757V19.3039H60.4381V15.4254H65.3994V13.3591H60.405V12.3646H66.6149ZM71.3773 11.3923V21.5912H70.1508V11.3923H71.3773ZM71.7972 23.9448V24.9613H62.3608V23.9448H71.7972ZM63.5873 20.8177V24.2762H62.3608V20.8177H63.5873ZM70.4492 15.0166V16.0773H67.4989V15.0166H70.4492ZM87.82 19.2265V22.4972H79.6763V24.5304H78.4498V21.5912H86.6045V20.2099H78.4167V19.2265H87.82ZM88.1957 24.0552V25.0497H78.4498V24.0552H88.1957ZM87.82 11.3812V18.5746H86.5935V11.3812H87.82ZM87.2344 13.9448V14.9392H84.3835V13.9448H87.2344ZM79.0907 12.9834C79.087 13.6059 79.0023 14.2376 78.8366 14.8785C78.6745 15.5157 78.413 16.1105 78.052 16.663C77.6911 17.2155 77.2307 17.6501 76.6708 17.9669L75.9968 17.105C76.4903 16.825 76.901 16.4494 77.2288 15.9779C77.5566 15.5064 77.7961 15.0092 77.9471 14.4862C78.1018 13.9595 78.181 13.4586 78.1846 12.9834V12H79.0907V12.9834ZM79.3449 12.9834C79.3449 13.4512 79.4038 13.9466 79.5217 14.4696C79.6395 14.9889 79.8421 15.4954 80.1294 15.9889C80.4204 16.4825 80.8071 16.8877 81.2896 17.2044L80.6929 18.1215C80.1294 17.7753 79.68 17.3076 79.3449 16.7182C79.0134 16.1289 78.7813 15.5101 78.6487 14.8619C78.5161 14.2136 78.4498 13.5875 78.4498 12.9834V12H79.3449V12.9834ZM82.936 12.9834C82.9323 13.6206 82.8624 14.2652 82.7261 14.9171C82.5935 15.5654 82.3614 16.1786 82.0299 16.7569C81.6984 17.3352 81.2528 17.7901 80.6929 18.1215L80.1073 17.2044C80.5861 16.8987 80.9692 16.5046 81.2565 16.0221C81.5438 15.5359 81.7445 15.0313 81.8587 14.5083C81.9728 13.9853 82.0299 13.477 82.0299 12.9834V12H82.936V12.9834ZM83.1902 12.9834C83.1902 13.5138 83.2657 14.0424 83.4167 14.5691C83.5677 15.0958 83.8089 15.5838 84.1404 16.0331C84.4719 16.4825 84.8918 16.8398 85.4001 17.105L84.7261 17.9669C84.1515 17.6648 83.6837 17.2486 83.3228 16.7182C82.9618 16.1878 82.7021 15.6041 82.5438 14.9669C82.3854 14.326 82.3062 13.6648 82.3062 12.9834V12H83.1902V12.9834ZM96.8372 20.6961C96.8335 21.3039 96.7046 21.8969 96.4505 22.4751C96.2 23.0497 95.8335 23.5654 95.351 24.0221C94.8722 24.4788 94.3068 24.8287 93.6549 25.0718L93.0361 24.1657C93.607 23.9558 94.1043 23.6648 94.5278 23.2928C94.9551 22.9171 95.2829 22.5028 95.5113 22.0497C95.7433 21.5967 95.8612 21.1455 95.8648 20.6961V19.9337H96.8372V20.6961ZM97.0472 20.6961C97.0472 21.1713 97.1429 21.6409 97.3345 22.105C97.526 22.5654 97.8114 22.9853 98.1908 23.3646C98.5739 23.7403 99.0361 24.0368 99.5776 24.2541L99.0693 25.1934C98.421 24.9466 97.8759 24.5875 97.4339 24.116C96.9919 23.6483 96.6641 23.1197 96.4505 22.5304C96.2405 21.9374 96.1374 21.326 96.1411 20.6961V19.9337H97.0472V20.6961ZM101.975 20.6961C101.972 21.2597 101.859 21.8379 101.638 22.4309C101.421 23.0203 101.093 23.5617 100.655 24.0552C100.22 24.5488 99.6917 24.9282 99.0693 25.1934L98.5389 24.2541C99.0656 24.0147 99.5186 23.6961 99.898 23.2983C100.281 22.8969 100.57 22.4659 100.765 22.0055C100.961 21.5451 101.058 21.1087 101.058 20.6961V19.9337H101.975V20.6961ZM102.263 20.6961C102.259 21.1786 102.369 21.6483 102.594 22.105C102.822 22.558 103.15 22.965 103.578 23.326C104.005 23.6869 104.509 23.9669 105.091 24.1657L104.473 25.0718C103.806 24.8361 103.233 24.4972 102.754 24.0552C102.279 23.6133 101.916 23.1031 101.666 22.5249C101.415 21.9429 101.29 21.3333 101.29 20.6961V19.9337H102.263V20.6961ZM103.821 11.3923V19.326H102.594V11.3923H103.821ZM96.3179 12.1989C97.014 12.1989 97.6383 12.3352 98.1908 12.6077C98.747 12.8803 99.1798 13.2634 99.4892 13.7569C99.7985 14.2505 99.9532 14.814 99.9532 15.4475C99.9532 16.0737 99.7967 16.6317 99.4836 17.1215C99.1706 17.6114 98.7378 17.9926 98.1853 18.2652C97.6365 18.5378 97.014 18.674 96.3179 18.674C95.6218 18.674 94.9956 18.5378 94.4394 18.2652C93.8869 17.9926 93.4542 17.6114 93.1411 17.1215C92.828 16.6317 92.6715 16.0737 92.6715 15.4475C92.6715 14.814 92.828 14.2505 93.1411 13.7569C93.4542 13.2634 93.8869 12.8803 94.4394 12.6077C94.9956 12.3352 95.6218 12.1989 96.3179 12.1989ZM96.3179 13.2486C95.8501 13.2449 95.4284 13.337 95.0527 13.5249C94.6807 13.709 94.3897 13.9705 94.1798 14.3094C93.9735 14.6446 93.8722 15.0239 93.8759 15.4475C93.8722 15.8711 93.9735 16.2505 94.1798 16.5856C94.3897 16.9171 94.6807 17.1786 95.0527 17.3702C95.4247 17.558 95.8464 17.6538 96.3179 17.6575C96.7857 17.6538 97.2037 17.558 97.572 17.3702C97.944 17.1786 98.235 16.9171 98.445 16.5856C98.6549 16.2505 98.7599 15.8711 98.7599 15.4475C98.7599 15.0239 98.6549 14.6446 98.445 14.3094C98.235 13.9705 97.944 13.709 97.572 13.5249C97.2 13.337 96.782 13.2449 96.3179 13.2486ZM116.131 11.3812V25.2928H114.904V11.3812H116.131ZM118.451 16.8729V17.9006H115.854V16.8729H118.451ZM107.081 20.7735C108.44 20.7735 109.608 20.7385 110.584 20.6685C111.563 20.5985 112.558 20.4715 113.567 20.2873L113.722 21.3481C112.69 21.5322 111.681 21.6556 110.694 21.7182C109.707 21.7808 108.503 21.8122 107.081 21.8122H105.987V20.7735H107.081ZM112.473 12.7403V13.7459H107.213V21.2486H105.987V12.7403H112.473ZM129.07 13.8343V14.8619H125.126V13.8343H129.07ZM129.092 16.8066V17.8232H125.126V16.8066H129.092ZM125.435 12.5967V19.0718H119.059V12.5967H125.435ZM120.275 13.6022V18.0884H124.23V13.6022H120.275ZM129.921 11.3923V21.5249H128.695V11.3923H129.921ZM130.242 23.9448V24.9613H120.938V23.9448H130.242ZM122.175 20.6188V24.3978H120.938V20.6188H122.175ZM133.645 20.7403C133.653 20.0663 133.723 19.5212 133.855 19.105C133.988 18.6851 134.174 18.3499 134.413 18.0994C134.656 17.8453 134.979 17.5948 135.38 17.3481C135.609 17.2081 135.807 17.046 135.977 16.8619C136.146 16.6777 136.281 16.4678 136.38 16.232C136.48 15.9963 136.529 15.7385 136.529 15.4586C136.529 15.1087 136.446 14.8029 136.281 14.5414C136.115 14.2762 135.89 14.0718 135.607 13.9282C135.327 13.7845 135.016 13.7127 134.673 13.7127C134.36 13.7127 134.065 13.7772 133.789 13.9061C133.516 14.035 133.29 14.2357 133.109 14.5083C132.929 14.7772 132.824 15.116 132.795 15.5249H131.369C131.395 14.9098 131.555 14.3775 131.85 13.9282C132.148 13.4751 132.542 13.1289 133.032 12.8895C133.526 12.6501 134.073 12.5304 134.673 12.5304C135.314 12.5304 135.879 12.6575 136.369 12.9116C136.859 13.1657 137.237 13.5212 137.502 13.9779C137.767 14.4309 137.899 14.9429 137.899 15.5138C137.899 15.9153 137.839 16.2818 137.717 16.6133C137.596 16.9411 137.421 17.2357 137.192 17.4972C136.964 17.7551 136.684 17.9853 136.353 18.1878C136.017 18.3941 135.754 18.6059 135.562 18.8232C135.375 19.0405 135.237 19.3002 135.148 19.6022C135.06 19.9042 135.012 20.2836 135.004 20.7403V20.8066H133.645V20.7403ZM134.375 24.0884C134.194 24.0884 134.025 24.0424 133.866 23.9503C133.712 23.8582 133.588 23.7366 133.496 23.5856C133.408 23.4309 133.365 23.2634 133.369 23.0829C133.365 22.9024 133.408 22.7366 133.496 22.5856C133.588 22.4309 133.712 22.3076 133.866 22.2155C134.025 22.1234 134.194 22.0773 134.375 22.0773C134.555 22.0773 134.721 22.1234 134.872 22.2155C135.027 22.3076 135.15 22.4309 135.242 22.5856C135.334 22.7366 135.38 22.9024 135.38 23.0829C135.38 23.2634 135.334 23.4309 135.242 23.5856C135.15 23.7366 135.027 23.8582 134.872 23.9503C134.721 24.0424 134.555 24.0884 134.375 24.0884Z" fill="black"/>
</svg>

