<svg width="31" height="31" viewBox="0 0 31 31" fill="none" xmlns="http://www.w3.org/2000/svg">
<path d="M23.3286 16.75H22.4786L19.9786 19.25H22.3661L24.5786 21.75H7.07861L9.30361 19.25H11.8661L9.36611 16.75H8.32861L4.57861 20.5V25.5C4.57861 26.875 5.69111 28 7.06611 28H24.5786C25.2417 28 25.8775 27.7366 26.3464 27.2678C26.8152 26.799 27.0786 26.1631 27.0786 25.5V20.5L23.3286 16.75ZM24.5786 25.5H7.07861V24.25H24.5786V25.5ZM15.0036 19.275C15.4911 19.7625 16.2786 19.7625 16.7661 19.275L24.7161 11.325C24.832 11.2094 24.9239 11.072 24.9867 10.9208C25.0494 10.7696 25.0817 10.6075 25.0817 10.4438C25.0817 10.2801 25.0494 10.118 24.9867 9.96675C24.9239 9.81553 24.832 9.67817 24.7161 9.56253L18.5286 3.37503C18.4158 3.25703 18.2805 3.16289 18.1307 3.09819C17.9808 3.03349 17.8195 2.99955 17.6563 2.99838C17.493 2.99722 17.3312 3.02885 17.1805 3.0914C17.0297 3.15396 16.8931 3.24615 16.7786 3.36253L8.81611 11.325C8.70023 11.4407 8.6083 11.578 8.54557 11.7292C8.48285 11.8805 8.45056 12.0426 8.45056 12.2063C8.45056 12.37 8.48285 12.5321 8.54557 12.6833C8.6083 12.8345 8.70023 12.9719 8.81611 13.0875L15.0036 19.275ZM17.6536 6.01253L22.0786 10.4375L15.8911 16.625L11.4661 12.2L17.6536 6.01253Z" fill="black"/>
</svg>
