<svg width="103" height="122" viewBox="0 0 103 122" fill="none" xmlns="http://www.w3.org/2000/svg">
<path d="M36.4694 4.40796C35.9479 3.53447 35.0085 3 33.9949 3H6.09691C3.85386 3 2.46839 5.45912 3.62243 7.39204L34.7881 59.592C35.3097 60.4655 36.249 61 37.2626 61H65.1606C67.4037 61 68.7891 58.5409 67.6351 56.608L36.4694 4.40796Z" fill="#C52229"/>
<path fill-rule="evenodd" clip-rule="evenodd" d="M33.9949 0.100098H6.09687C1.61077 0.100098 -1.16017 5.01833 1.14791 8.88417L32.3136 61.0842C33.3567 62.8312 35.2353 63.9001 37.2626 63.9001H65.1606C69.6467 63.9001 72.4176 58.9819 70.1095 55.116L38.9438 2.91602C37.9008 1.16903 36.0222 0.100098 33.9949 0.100098ZM33.9949 3.0001C35.0085 3.0001 35.9478 3.53457 36.4693 4.40806L67.6351 56.6081C68.7891 58.541 67.4036 61.0001 65.1606 61.0001H37.2626C36.2489 61.0001 35.3096 60.4656 34.7881 59.5921L3.62239 7.39214C2.46835 5.45921 3.85382 3.0001 6.09687 3.0001H33.9949Z" fill="#9B0F15"/>
<path d="M66.5306 4.40796C67.0521 3.53447 67.9915 3 69.0051 3H96.9031C99.1461 3 100.532 5.45912 99.3776 7.39204L68.2119 59.592C67.6903 60.4655 66.751 61 65.7374 61H37.8394C35.5963 61 34.2109 58.5409 35.3649 56.608L66.5306 4.40796Z" fill="#F1333B"/>
<path fill-rule="evenodd" clip-rule="evenodd" d="M69.0051 0.100098H96.9031C101.389 0.100098 104.16 5.01833 101.852 8.88417L70.6864 61.0842C69.6433 62.8312 67.7647 63.9001 65.7374 63.9001H37.8394C33.3533 63.9001 30.5824 58.9819 32.8905 55.116L64.0562 2.91602C65.0992 1.16903 66.9778 0.100098 69.0051 0.100098ZM69.0051 3.0001C67.9915 3.0001 67.0522 3.53457 66.5307 4.40806L35.3649 56.6081C34.2109 58.541 35.5964 61.0001 37.8394 61.0001H65.7374C66.7511 61.0001 67.6904 60.4656 68.2119 59.5921L99.3776 7.39214C100.532 5.45921 99.1462 3.0001 96.9031 3.0001H69.0051Z" fill="#9B0F15"/>
<path fill-rule="evenodd" clip-rule="evenodd" d="M69.5386 4.646C70.2277 5.04812 70.462 5.93551 70.0618 6.62804L57.0761 29.103C56.676 29.7956 55.793 30.031 55.1038 29.6289C54.4147 29.2268 54.1804 28.3394 54.5806 27.6469L67.5663 5.17185C67.9664 4.47932 68.8494 4.24389 69.5386 4.646Z" fill="#FE666D"/>
<path fill-rule="evenodd" clip-rule="evenodd" d="M6.04688 4.646C5.35775 5.04812 5.12348 5.93551 5.52362 6.62804L18.5093 29.103C18.9095 29.7956 19.7925 30.031 20.4816 29.6289C21.1707 29.2268 21.405 28.3394 21.0049 27.6469L8.01915 5.17185C7.61902 4.47932 6.736 4.24389 6.04688 4.646Z" fill="#DF3840"/>
<path d="M33.4641 7.75771C33.4641 8.78376 32.6566 9.61553 31.6605 9.61553C30.6644 9.61553 29.8569 8.78376 29.8569 7.75771C29.8569 6.73167 30.6644 5.8999 31.6605 5.8999C32.6566 5.8999 33.4641 6.73167 33.4641 7.75771Z" fill="#AA161D"/>
<path d="M27.13 8.21084C27.13 9.48714 26.1256 10.5218 24.8865 10.5218C23.6475 10.5218 22.6431 9.48714 22.6431 8.21084C22.6431 6.93454 23.6475 5.8999 24.8865 5.8999C26.1256 5.8999 27.13 6.93454 27.13 8.21084Z" fill="#AA161D"/>
<path d="M32.7428 14.8266C32.7428 16.1029 31.7384 17.1375 30.4993 17.1375C29.2603 17.1375 28.2559 16.1029 28.2559 14.8266C28.2559 13.5503 29.2603 12.5156 30.4993 12.5156C31.7384 12.5156 32.7428 13.5503 32.7428 14.8266Z" fill="#AA161D"/>
<path d="M37.8719 11.6772C37.8719 12.3153 37.3697 12.8327 36.7502 12.8327C36.1306 12.8327 35.6284 12.3153 35.6284 11.6772C35.6284 11.039 36.1306 10.5217 36.7502 10.5217C37.3697 10.5217 37.8719 11.039 37.8719 11.6772Z" fill="#AA161D"/>
<path d="M26.0081 13.6711C26.0081 14.3092 25.5059 14.8266 24.8864 14.8266C24.2669 14.8266 23.7646 14.3092 23.7646 13.6711C23.7646 13.0329 24.2669 12.5156 24.8864 12.5156C25.5059 12.5156 26.0081 13.0329 26.0081 13.6711Z" fill="#AA161D"/>
<path d="M19.7571 6.60225C19.7571 7.24039 19.2549 7.75771 18.6354 7.75771C18.0159 7.75771 17.5137 7.24039 17.5137 6.60225C17.5137 5.9641 18.0159 5.44678 18.6354 5.44678C19.2549 5.44678 19.7571 5.9641 19.7571 6.60225Z" fill="#AA161D"/>
<path d="M36.7503 19.7429C36.7503 20.381 36.2481 20.8983 35.6286 20.8983C35.0091 20.8983 34.5068 20.381 34.5068 19.7429C34.5068 19.1047 35.0091 18.5874 35.6286 18.5874C36.2481 18.5874 36.7503 19.1047 36.7503 19.7429Z" fill="#AA161D"/>
<path d="M30.9788 20.8984C30.9788 21.5365 30.4766 22.0539 29.8571 22.0539C29.2376 22.0539 28.7354 21.5365 28.7354 20.8984C28.7354 20.2602 29.2376 19.7429 29.8571 19.7429C30.4766 19.7429 30.9788 20.2602 30.9788 20.8984Z" fill="#AA161D"/>
<path d="M42.1653 16.7069C42.1653 17.7454 41.348 18.5874 40.3397 18.5874C39.3315 18.5874 38.5142 17.7454 38.5142 16.7069C38.5142 15.6683 39.3315 14.8264 40.3397 14.8264C41.348 14.8264 42.1653 15.6683 42.1653 16.7069Z" fill="#AA161D"/>
<path d="M44.5452 22.0539C44.5452 22.6921 44.043 23.2094 43.4235 23.2094C42.804 23.2094 42.3018 22.6921 42.3018 22.0539C42.3018 21.4158 42.804 20.8984 43.4235 20.8984C44.043 20.8984 44.5452 21.4158 44.5452 22.0539Z" fill="#AA161D"/>
<path d="M90.4573 79.85C90.4573 101.472 73.0155 119 51.5001 119C29.9847 119 12.543 101.472 12.543 79.85C12.543 58.228 29.9847 40.7 51.5001 40.7C73.0155 40.7 90.4573 58.228 90.4573 79.85Z" fill="#FFBB0D"/>
<path fill-rule="evenodd" clip-rule="evenodd" d="M93.3429 79.8501C93.3429 103.074 74.6093 121.9 51.5001 121.9C28.3909 121.9 9.65723 103.074 9.65723 79.8501C9.65723 56.6265 28.3909 37.8 51.5001 37.8C74.6093 37.8 93.3429 56.6265 93.3429 79.8501ZM51.5001 119C73.0155 119 90.4572 101.472 90.4572 79.8501C90.4572 58.2281 73.0155 40.7 51.5001 40.7C29.9846 40.7 12.5429 58.2281 12.5429 79.8501C12.5429 101.472 29.9846 119 51.5001 119Z" fill="#E89B05"/>
<path fill-rule="evenodd" clip-rule="evenodd" d="M15.4286 81.3C14.6317 81.3 13.9857 80.6509 13.9857 79.85C13.9857 59.0289 30.7814 42.15 51.5 42.15C52.2969 42.15 52.9429 42.7992 52.9429 43.6C52.9429 44.4009 52.2969 45.05 51.5 45.05C32.3752 45.05 16.8714 60.6305 16.8714 79.85C16.8714 80.6509 16.2255 81.3 15.4286 81.3Z" fill="#E8AA0A"/>
<path fill-rule="evenodd" clip-rule="evenodd" d="M87.5714 78.4001C88.3683 78.4001 89.0143 79.0493 89.0143 79.8501C89.0143 100.671 72.2186 117.55 51.5 117.55C50.7031 117.55 50.0571 116.901 50.0571 116.1C50.0571 115.299 50.7031 114.65 51.5 114.65C70.6248 114.65 86.1286 99.0697 86.1286 79.8501C86.1286 79.0493 86.7745 78.4001 87.5714 78.4001Z" fill="#E8AA0A"/>
<path d="M80.3574 79.8501C80.3574 95.8664 67.4376 108.85 51.5002 108.85C35.5628 108.85 22.6431 95.8664 22.6431 79.8501C22.6431 63.8338 35.5628 50.8501 51.5002 50.8501C67.4376 50.8501 80.3574 63.8338 80.3574 79.8501Z" fill="#FFDD28"/>
<path fill-rule="evenodd" clip-rule="evenodd" d="M83.243 79.85C83.243 97.4678 69.0313 111.75 51.5002 111.75C33.9691 111.75 19.7573 97.4678 19.7573 79.85C19.7573 62.2321 33.9691 47.95 51.5002 47.95C69.0313 47.95 83.243 62.2321 83.243 79.85ZM51.5002 108.85C67.4375 108.85 80.3573 95.8662 80.3573 79.85C80.3573 63.8337 67.4375 50.85 51.5002 50.85C35.5628 50.85 22.643 63.8337 22.643 79.85C22.643 95.8662 35.5628 108.85 51.5002 108.85Z" fill="#E89B05"/>
<path fill-rule="evenodd" clip-rule="evenodd" d="M51.5003 104.5C65.047 104.5 76.0288 93.464 76.0288 79.8501C76.0288 79.0493 76.6748 78.4001 77.4717 78.4001C78.2686 78.4001 78.9146 79.0493 78.9146 79.8501C78.9146 95.0656 66.6408 107.4 51.5003 107.4C50.7034 107.4 50.0574 106.751 50.0574 105.95C50.0574 105.149 50.7034 104.5 51.5003 104.5Z" fill="#ECC704"/>
<path fill-rule="evenodd" clip-rule="evenodd" d="M51.5002 55.2C37.9535 55.2 26.9717 66.2362 26.9717 79.85C26.9717 80.6509 26.3257 81.3 25.5288 81.3C24.7319 81.3 24.0859 80.6509 24.0859 79.85C24.0859 64.6346 36.3597 52.3 51.5002 52.3C52.2971 52.3 52.9431 52.9492 52.9431 53.75C52.9431 54.5509 52.2971 55.2 51.5002 55.2Z" fill="#FFEF9C"/>
<path d="M35.6289 76.0799L45.5485 74.0499L48.5244 68.9749L51.5003 63.8999L57.4521 74.0499L67.3718 76.0799L59.436 84.1999L61.42 94.3499L51.5003 89.2749L41.5807 94.3499L43.5646 84.1999L35.6289 76.0799Z" fill="#FFEF9C"/>
<path fill-rule="evenodd" clip-rule="evenodd" d="M45.5486 74.05L51.5004 63.9L57.4522 74.05L67.3718 76.08L59.4361 84.2L61.42 94.35L51.5004 89.275L41.5807 94.35L43.5647 84.2L35.6289 76.08L45.5486 74.05ZM40.4398 85.1413L33.5701 78.1121C32.829 77.3537 32.5601 76.2485 32.8694 75.232C33.1787 74.2154 34.0166 73.4504 35.0531 73.2383L43.7144 71.4658L49.0142 62.4277C49.533 61.543 50.4786 61 51.5004 61C52.5222 61 53.4678 61.543 53.9865 62.4277L59.2863 71.4658L67.9476 73.2383C68.9841 73.4504 69.8221 74.2154 70.1314 75.232C70.4407 76.2485 70.1718 77.3537 69.4306 78.1121L62.5609 85.1413L64.2516 93.791C64.4644 94.8798 64.0404 95.9952 63.1594 96.664C62.2783 97.3328 61.0948 97.4378 60.1108 96.9344L51.5004 92.5292L42.8899 96.9344C41.906 97.4378 40.7224 97.3328 39.8414 96.664C38.9604 95.9952 38.5363 94.8798 38.7491 93.791L40.4398 85.1413Z" fill="#E89B05"/>
</svg>
