<svg width="26" height="29" viewBox="0 0 32 35" fill="none" xmlns="http://www.w3.org/2000/svg">
<path fill-rule="evenodd" clip-rule="evenodd" d="M16 32.4375C16.2578 32.4375 16.5154 32.4312 16.7728 32.4185C17.0302 32.4059 17.2872 32.3869 17.5438 32.3616C17.8003 32.3363 18.0561 32.3048 18.311 32.267C18.566 32.2292 18.8199 32.1852 19.0727 32.1348C19.3255 32.0846 19.5769 32.0282 19.827 31.9655C20.077 31.9029 20.3253 31.8341 20.572 31.7593C20.8186 31.6845 21.0633 31.6037 21.306 31.5168C21.5487 31.43 21.7891 31.3373 22.0273 31.2387C22.2654 31.14 22.501 31.0355 22.734 30.9254C22.9671 30.8151 23.1972 30.6993 23.4245 30.5778C23.6519 30.4563 23.8761 30.3292 24.0971 30.1967C24.3182 30.0642 24.5359 29.9263 24.7502 29.7831C24.9646 29.6399 25.1752 29.4916 25.3823 29.338C25.5893 29.1845 25.7924 29.0259 25.9917 28.8624C26.1909 28.6988 26.386 28.5305 26.577 28.3575C26.7681 28.1844 26.9547 28.0067 27.137 27.8245C27.3192 27.6422 27.4969 27.4556 27.67 27.2645C27.843 27.0735 28.0113 26.8784 28.1749 26.6792C28.3384 26.4799 28.497 26.2768 28.6505 26.0698C28.8041 25.8627 28.9524 25.6521 29.0956 25.4377C29.2388 25.2234 29.3767 25.0057 29.5092 24.7846C29.6417 24.5636 29.7688 24.3394 29.8903 24.112C30.0118 23.8847 30.1276 23.6546 30.2379 23.4215C30.348 23.1885 30.4525 22.9529 30.5512 22.7148C30.6498 22.4766 30.7425 22.2362 30.8293 21.9935C30.9162 21.7508 30.997 21.5061 31.0718 21.2595C31.1466 21.0128 31.2154 20.7645 31.278 20.5145C31.3407 20.2644 31.3971 20.013 31.4473 19.7602C31.4977 19.5074 31.5417 19.2535 31.5795 18.9985C31.6173 18.7436 31.6488 18.4878 31.6741 18.2313C31.6994 17.9747 31.7184 17.7177 31.731 17.4603C31.7437 17.2029 31.75 16.9453 31.75 16.6875C31.75 16.4297 31.7437 16.1721 31.731 15.9147C31.7184 15.6573 31.6994 15.4003 31.6741 15.1437C31.6488 14.8872 31.6173 14.6314 31.5795 14.3764C31.5417 14.1215 31.4977 13.8676 31.4473 13.6148C31.3971 13.362 31.3407 13.1106 31.278 12.8606C31.2154 12.6105 31.1466 12.3622 31.0718 12.1155C30.997 11.8688 30.9162 11.6242 30.8293 11.3815C30.7425 11.1388 30.6498 10.8984 30.5512 10.6602C30.4525 10.4221 30.348 10.1865 30.2379 9.95351C30.1276 9.7205 30.0118 9.49033 29.8903 9.263C29.7688 9.03568 29.6417 8.81147 29.5092 8.59038C29.3767 8.36929 29.2388 8.15159 29.0956 7.93727C28.9524 7.72295 28.8041 7.51227 28.6505 7.30524C28.497 7.0982 28.3384 6.89506 28.1749 6.69581C28.0113 6.49655 27.843 6.30143 27.67 6.11044C27.4969 5.91946 27.3192 5.73283 27.137 5.55057C26.9547 5.36831 26.7681 5.19063 26.577 5.01752C26.386 4.84442 26.1909 4.67611 25.9917 4.51258C25.7924 4.34906 25.5893 4.19053 25.3823 4.03698C25.1752 3.88344 24.9646 3.73506 24.7502 3.59185C24.5359 3.44864 24.3182 3.31079 24.0971 3.17828C23.8761 3.04576 23.6519 2.91875 23.4245 2.79723C23.1972 2.67573 22.9671 2.55988 22.734 2.44967C22.501 2.33946 22.2654 2.23504 22.0273 2.1364C21.7891 2.03776 21.5487 1.94502 21.306 1.85818C21.0633 1.77134 20.8186 1.69051 20.572 1.61569C20.3253 1.54087 20.077 1.47214 19.827 1.40951C19.5769 1.34688 19.3255 1.29042 19.0727 1.24013C18.8199 1.18985 18.566 1.14579 18.311 1.10797C18.0561 1.07015 17.8003 1.03861 17.5438 1.01334C17.2872 0.988076 17.0302 0.969119 16.7728 0.956472C16.5154 0.943824 16.2578 0.9375 16 0.9375C15.7422 0.9375 15.4846 0.943824 15.2272 0.956472C14.9698 0.969119 14.7128 0.988076 14.4562 1.01334C14.1997 1.03861 13.9439 1.07015 13.6889 1.10797C13.434 1.14579 13.1801 1.18985 12.9273 1.24013C12.6745 1.29042 12.4231 1.34688 12.1731 1.40951C11.923 1.47214 11.6747 1.54087 11.428 1.61569C11.1813 1.69051 10.9367 1.77134 10.694 1.85818C10.4513 1.94502 10.2109 2.03776 9.97274 2.1364C9.7346 2.23504 9.49902 2.33946 9.26601 2.44967C9.033 2.55988 8.80283 2.67573 8.5755 2.79723C8.34818 2.91875 8.12397 3.04576 7.90288 3.17828C7.68179 3.31079 7.46409 3.44864 7.24977 3.59185C7.03545 3.73506 6.82477 3.88344 6.61774 4.03698C6.4107 4.19053 6.20756 4.34906 6.00831 4.51258C5.80905 4.67611 5.61393 4.84442 5.42294 5.01752C5.23196 5.19063 5.04533 5.36831 4.86307 5.55057C4.68081 5.73283 4.50313 5.91946 4.33002 6.11044C4.15692 6.30143 3.98861 6.49655 3.82508 6.69581C3.66156 6.89506 3.50303 7.0982 3.34948 7.30524C3.19594 7.51227 3.04756 7.72295 2.90435 7.93727C2.76114 8.15159 2.62329 8.36929 2.49078 8.59038C2.35826 8.81147 2.23125 9.03568 2.10973 9.263C1.98823 9.49033 1.87238 9.7205 1.76217 9.95351C1.65196 10.1865 1.54754 10.4221 1.4489 10.6602C1.35026 10.8984 1.25752 11.1388 1.17068 11.3815C1.08384 11.6242 1.00301 11.8688 0.92819 12.1155C0.853366 12.3622 0.784638 12.6105 0.722008 12.8606C0.659377 13.1106 0.602919 13.362 0.552632 13.6148C0.502345 13.8676 0.458291 14.1215 0.42047 14.3764C0.382648 14.6314 0.351105 14.8872 0.32584 15.1437C0.300575 15.4003 0.281619 15.6573 0.268971 15.9147C0.256324 16.1721 0.25 16.4297 0.25 16.6875C0.25 17.1948 0.274459 17.701 0.323376 18.2061C0.372294 18.711 0.445442 19.2125 0.542821 19.7104C0.6402 20.2083 0.761356 20.7004 0.906289 21.1866C1.05122 21.6729 1.21926 22.151 1.4104 22.6209C1.60153 23.091 1.81488 23.5506 2.05045 24C2.28601 24.4494 2.54268 24.8863 2.82047 25.3109C3.09825 25.7354 3.39586 26.1456 3.71329 26.5414C4.03072 26.9372 4.36649 27.3168 4.7206 27.6801L3.43462 32.824C3.18776 33.8114 4.11014 34.692 5.08508 34.3994L12.7529 32.0991C13.8235 32.3247 14.9059 32.4375 16 32.4375Z" fill="url(#paint0_linear_2572_10992)"/>
<path d="M12.7188 16.6875C13.8061 16.6875 14.6875 15.8061 14.6875 14.7188C14.6875 13.6314 13.8061 12.75 12.7188 12.75C11.6314 12.75 10.75 13.6314 10.75 14.7188C10.75 15.8061 11.6314 16.6875 12.7188 16.6875Z" fill="white"/>
<path d="M23.2188 16.6875C24.3061 16.6875 25.1875 15.8061 25.1875 14.7188C25.1875 13.6314 24.3061 12.75 23.2188 12.75C22.1314 12.75 21.25 13.6314 21.25 14.7188C21.25 15.8061 22.1314 16.6875 23.2188 16.6875Z" fill="white"/>
<path fill-rule="evenodd" clip-rule="evenodd" d="M12.2336 20.625C12.2842 20.7679 12.3401 20.9086 12.4014 21.0472C12.4628 21.1857 12.5294 21.3217 12.6012 21.4552C12.673 21.5886 12.7498 21.7191 12.8317 21.8466C12.9135 21.9742 13.0002 22.0984 13.0916 22.2192C13.183 22.3401 13.2789 22.4573 13.3794 22.5707C13.4798 22.6842 13.5845 22.7937 13.6933 22.8991C13.8022 23.0045 13.9149 23.1056 14.0316 23.2023C14.1482 23.2991 14.2684 23.3912 14.3921 23.4787C14.5159 23.5662 14.6428 23.6488 14.7729 23.7265C14.903 23.8042 15.0358 23.8768 15.1715 23.9443C15.3072 24.0118 15.4453 24.074 15.5857 24.1309C15.7262 24.1877 15.8687 24.2391 16.0131 24.285C16.1575 24.3309 16.3035 24.3712 16.451 24.4059C16.5985 24.4405 16.7471 24.4695 16.8969 24.4927C17.0466 24.5159 17.1971 24.5334 17.3482 24.545C17.4993 24.5567 17.6506 24.5625 17.8021 24.5625C17.9536 24.5625 18.105 24.5567 18.2561 24.545C18.4072 24.5334 18.5576 24.5159 18.7073 24.4927C18.8571 24.4695 19.0057 24.4405 19.1532 24.4059C19.3008 24.3712 19.4467 24.3309 19.5911 24.285C19.7356 24.2391 19.878 24.1877 20.0185 24.1309C20.1589 24.074 20.297 24.0118 20.4327 23.9443C20.5684 23.8768 20.7013 23.8042 20.8314 23.7265C20.9614 23.6488 21.0883 23.5662 21.2121 23.4787C21.3358 23.3912 21.456 23.2991 21.5726 23.2023C21.6893 23.1056 21.802 23.0045 21.9109 22.8991C22.0198 22.7937 22.1244 22.6842 22.2248 22.5707C22.3253 22.4573 22.4212 22.3401 22.5126 22.2192C22.604 22.0984 22.6907 21.9742 22.7725 21.8466C22.8544 21.7191 22.9312 21.5886 23.0031 21.4552C23.0749 21.3217 23.1414 21.1857 23.2028 21.0472C23.2641 20.9086 23.3201 20.7679 23.3706 20.625H12.2336Z" fill="white"/>
<defs>
<linearGradient id="paint0_linear_2572_10992" x1="16" y1="0.9375" x2="16" y2="34.4564" gradientUnits="userSpaceOnUse">
<stop stop-color="#FFCC02"/>
<stop offset="1" stop-color="#FBAB00"/>
</linearGradient>
</defs>
</svg>
