<svg width="42" height="42" viewBox="0 0 42 42" fill="none" xmlns="http://www.w3.org/2000/svg">
<path fill-rule="evenodd" clip-rule="evenodd" d="M21 35.4375C21.2578 35.4375 21.5154 35.4312 21.7728 35.4185C22.0302 35.4059 22.2872 35.3869 22.5438 35.3616C22.8003 35.3363 23.0561 35.3048 23.311 35.267C23.566 35.2292 23.8199 35.1852 24.0727 35.1348C24.3255 35.0846 24.5769 35.0282 24.827 34.9655C25.077 34.9029 25.3253 34.8341 25.572 34.7593C25.8186 34.6845 26.0633 34.6037 26.306 34.5168C26.5487 34.43 26.7891 34.3373 27.0273 34.2387C27.2654 34.14 27.501 34.0355 27.734 33.9254C27.9671 33.8151 28.1972 33.6993 28.4245 33.5778C28.6519 33.4563 28.8761 33.3292 29.0971 33.1967C29.3182 33.0642 29.5359 32.9263 29.7502 32.7831C29.9646 32.6399 30.1752 32.4916 30.3823 32.338C30.5893 32.1845 30.7924 32.0259 30.9917 31.8624C31.1909 31.6988 31.386 31.5305 31.577 31.3575C31.7681 31.1844 31.9547 31.0067 32.137 30.8245C32.3192 30.6422 32.4969 30.4556 32.67 30.2645C32.843 30.0735 33.0113 29.8784 33.1749 29.6792C33.3384 29.4799 33.497 29.2768 33.6505 29.0698C33.8041 28.8627 33.9524 28.6521 34.0956 28.4377C34.2388 28.2234 34.3767 28.0057 34.5092 27.7846C34.6417 27.5636 34.7688 27.3394 34.8903 27.112C35.0118 26.8847 35.1276 26.6546 35.2379 26.4215C35.348 26.1885 35.4525 25.9529 35.5512 25.7148C35.6498 25.4766 35.7425 25.2362 35.8293 24.9935C35.9162 24.7508 35.997 24.5061 36.0718 24.2595C36.1466 24.0128 36.2154 23.7645 36.278 23.5145C36.3407 23.2644 36.3971 23.013 36.4473 22.7602C36.4977 22.5074 36.5417 22.2535 36.5795 21.9985C36.6173 21.7436 36.6488 21.4878 36.6741 21.2313C36.6994 20.9747 36.7184 20.7177 36.731 20.4603C36.7437 20.2029 36.75 19.9453 36.75 19.6875C36.75 19.4297 36.7437 19.1721 36.731 18.9147C36.7184 18.6573 36.6994 18.4003 36.6741 18.1437C36.6488 17.8872 36.6173 17.6314 36.5795 17.3764C36.5417 17.1215 36.4977 16.8676 36.4473 16.6148C36.3971 16.362 36.3407 16.1106 36.278 15.8606C36.2154 15.6105 36.1466 15.3622 36.0718 15.1155C35.997 14.8688 35.9162 14.6242 35.8293 14.3815C35.7425 14.1388 35.6498 13.8984 35.5512 13.6602C35.4525 13.4221 35.348 13.1865 35.2379 12.9535C35.1276 12.7205 35.0118 12.4903 34.8903 12.263C34.7688 12.0357 34.6417 11.8115 34.5092 11.5904C34.3767 11.3693 34.2388 11.1516 34.0956 10.9373C33.9524 10.723 33.8041 10.5123 33.6505 10.3052C33.497 10.0982 33.3384 9.89506 33.1749 9.69581C33.0113 9.49655 32.843 9.30143 32.67 9.11044C32.4969 8.91946 32.3192 8.73283 32.137 8.55057C31.9547 8.36831 31.7681 8.19063 31.577 8.01752C31.386 7.84442 31.1909 7.67611 30.9917 7.51258C30.7924 7.34906 30.5893 7.19053 30.3823 7.03698C30.1752 6.88344 29.9646 6.73506 29.7502 6.59185C29.5359 6.44864 29.3182 6.31079 29.0971 6.17828C28.8761 6.04576 28.6519 5.91875 28.4245 5.79723C28.1972 5.67573 27.9671 5.55988 27.734 5.44967C27.501 5.33946 27.2654 5.23504 27.0273 5.1364C26.7891 5.03776 26.5487 4.94502 26.306 4.85818C26.0633 4.77134 25.8186 4.69051 25.572 4.61569C25.3253 4.54087 25.077 4.47214 24.827 4.40951C24.5769 4.34688 24.3255 4.29042 24.0727 4.24013C23.8199 4.18985 23.566 4.14579 23.311 4.10797C23.0561 4.07015 22.8003 4.03861 22.5438 4.01334C22.2872 3.98808 22.0302 3.96912 21.7728 3.95647C21.5154 3.94382 21.2578 3.9375 21 3.9375C20.7422 3.9375 20.4846 3.94382 20.2272 3.95647C19.9698 3.96912 19.7128 3.98808 19.4562 4.01334C19.1997 4.03861 18.9439 4.07015 18.6889 4.10797C18.434 4.14579 18.1801 4.18985 17.9273 4.24013C17.6745 4.29042 17.4231 4.34688 17.1731 4.40951C16.923 4.47214 16.6747 4.54087 16.428 4.61569C16.1813 4.69051 15.9367 4.77134 15.694 4.85818C15.4513 4.94502 15.2109 5.03776 14.9727 5.1364C14.7346 5.23504 14.499 5.33946 14.266 5.44967C14.033 5.55988 13.8028 5.67573 13.5755 5.79723C13.3482 5.91875 13.124 6.04576 12.9029 6.17828C12.6818 6.31079 12.4641 6.44864 12.2498 6.59185C12.0355 6.73506 11.8248 6.88344 11.6177 7.03698C11.4107 7.19053 11.2076 7.34906 11.0083 7.51258C10.8091 7.67611 10.6139 7.84442 10.4229 8.01752C10.232 8.19063 10.0453 8.36831 9.86307 8.55057C9.68081 8.73283 9.50313 8.91946 9.33002 9.11044C9.15692 9.30143 8.98861 9.49655 8.82508 9.69581C8.66156 9.89506 8.50303 10.0982 8.34948 10.3052C8.19594 10.5123 8.04756 10.723 7.90435 10.9373C7.76114 11.1516 7.62329 11.3693 7.49078 11.5904C7.35826 11.8115 7.23125 12.0357 7.10973 12.263C6.98823 12.4903 6.87238 12.7205 6.76217 12.9535C6.65196 13.1865 6.54754 13.4221 6.4489 13.6602C6.35026 13.8984 6.25752 14.1388 6.17068 14.3815C6.08384 14.6242 6.00301 14.8688 5.92819 15.1155C5.85337 15.3622 5.78464 15.6105 5.72201 15.8606C5.65938 16.1106 5.60292 16.362 5.55263 16.6148C5.50235 16.8676 5.45829 17.1215 5.42047 17.3764C5.38265 17.6314 5.35111 17.8872 5.32584 18.1437C5.30058 18.4003 5.28162 18.6573 5.26897 18.9147C5.25632 19.1721 5.25 19.4297 5.25 19.6875C5.25 20.1948 5.27446 20.701 5.32338 21.2061C5.37229 21.711 5.44544 22.2125 5.54282 22.7104C5.6402 23.2083 5.76136 23.7004 5.90629 24.1866C6.05122 24.6729 6.21926 25.151 6.4104 25.6209C6.60153 26.091 6.81488 26.5506 7.05045 27C7.28601 27.4494 7.54268 27.8863 7.82047 28.3109C8.09825 28.7354 8.39586 29.1456 8.71329 29.5414C9.03072 29.9372 9.36649 30.3168 9.7206 30.6801L8.43462 35.824C8.18776 36.8114 9.11014 37.692 10.0851 37.3994L17.7529 35.0991C18.8235 35.3247 19.9059 35.4375 21 35.4375Z" fill="url(#paint0_linear_2504_10987)"/>
<path d="M17.7188 19.6875C18.8061 19.6875 19.6875 18.8061 19.6875 17.7188C19.6875 16.6314 18.8061 15.75 17.7188 15.75C16.6314 15.75 15.75 16.6314 15.75 17.7188C15.75 18.8061 16.6314 19.6875 17.7188 19.6875Z" fill="white"/>
<path d="M28.2188 19.6875C29.3061 19.6875 30.1875 18.8061 30.1875 17.7188C30.1875 16.6314 29.3061 15.75 28.2188 15.75C27.1314 15.75 26.25 16.6314 26.25 17.7188C26.25 18.8061 27.1314 19.6875 28.2188 19.6875Z" fill="white"/>
<path fill-rule="evenodd" clip-rule="evenodd" d="M17.2336 23.625C17.2842 23.7679 17.3401 23.9086 17.4014 24.0472C17.4628 24.1857 17.5294 24.3217 17.6012 24.4552C17.673 24.5886 17.7498 24.7191 17.8317 24.8466C17.9135 24.9742 18.0002 25.0984 18.0916 25.2192C18.183 25.3401 18.2789 25.4573 18.3794 25.5707C18.4798 25.6842 18.5845 25.7937 18.6933 25.8991C18.8022 26.0045 18.9149 26.1056 19.0316 26.2023C19.1482 26.2991 19.2684 26.3912 19.3921 26.4787C19.5159 26.5662 19.6428 26.6488 19.7729 26.7265C19.903 26.8042 20.0358 26.8768 20.1715 26.9443C20.3072 27.0118 20.4453 27.074 20.5857 27.1309C20.7262 27.1877 20.8687 27.2391 21.0131 27.285C21.1575 27.3309 21.3035 27.3712 21.451 27.4059C21.5985 27.4405 21.7471 27.4695 21.8969 27.4927C22.0466 27.5159 22.1971 27.5334 22.3482 27.545C22.4993 27.5567 22.6506 27.5625 22.8021 27.5625C22.9536 27.5625 23.105 27.5567 23.2561 27.545C23.4072 27.5334 23.5576 27.5159 23.7073 27.4927C23.8571 27.4695 24.0057 27.4405 24.1532 27.4059C24.3008 27.3712 24.4467 27.3309 24.5911 27.285C24.7356 27.2391 24.878 27.1877 25.0185 27.1309C25.1589 27.074 25.297 27.0118 25.4327 26.9443C25.5684 26.8768 25.7013 26.8042 25.8314 26.7265C25.9614 26.6488 26.0883 26.5662 26.2121 26.4787C26.3358 26.3912 26.456 26.2991 26.5726 26.2023C26.6893 26.1056 26.802 26.0045 26.9109 25.8991C27.0198 25.7937 27.1244 25.6842 27.2248 25.5707C27.3253 25.4573 27.4212 25.3401 27.5126 25.2192C27.604 25.0984 27.6907 24.9742 27.7725 24.8466C27.8544 24.7191 27.9312 24.5886 28.0031 24.4552C28.0749 24.3217 28.1414 24.1857 28.2028 24.0472C28.2641 23.9086 28.3201 23.7679 28.3706 23.625H17.2336Z" fill="white"/>
<defs>
<linearGradient id="paint0_linear_2504_10987" x1="21" y1="3.9375" x2="21" y2="37.4564" gradientUnits="userSpaceOnUse">
<stop stop-color="#FFCC02"/>
<stop offset="1" stop-color="#FBAB00"/>
</linearGradient>
</defs>
</svg>
